<svg width="32" height="32" viewBox="0 0 32 32" fill="none" xmlns="http://www.w3.org/2000/svg">
<path d="M30 15H27.9492C27.7097 12.1764 26.4792 9.52842 24.4754 7.52463C22.4716 5.52084 19.8236 4.29033 17 4.0508V2H15V4.0508C12.1764 4.29033 9.52842 5.52084 7.52463 7.52463C5.52084 9.52842 4.29033 12.1764 4.0508 15H2V17H4.0508C4.29033 19.8236 5.52084 22.4716 7.52463 24.4754C9.52842 26.4792 12.1764 27.7097 15 27.9492V30H17V27.9492C19.8236 27.7097 22.4716 26.4792 24.4754 24.4754C26.4792 22.4716 27.7097 19.8236 27.9492 17H30V15ZM17 25.9492V22H15V25.9492C12.7062 25.7154 10.5633 24.6974 8.93296 23.067C7.3026 21.4367 6.28461 19.2938 6.0508 17H10V15H6.0508C6.28461 12.7062 7.3026 10.5633 8.93296 8.93296C10.5633 7.3026 12.7062 6.28461 15 6.0508V10H17V6.0508C19.2938 6.28461 21.4367 7.3026 23.067 8.93296C24.6974 10.5633 25.7154 12.7062 25.9492 15H22V17H25.9492C25.7154 19.2938 24.6974 21.4367 23.067 23.067C21.4367 24.6974 19.2938 25.7154 17 25.9492V25.9492Z" fill="white"/>
</svg>
