<svg width="160" height="160" viewBox="0 0 160 160" fill="none" xmlns="http://www.w3.org/2000/svg">
<rect width="160" height="160" fill="black"/>
<path d="M74.9125 101.494C75.2093 101.606 75.4959 101.708 75.7518 101.81C75.7518 101.81 78.1364 102.485 79.1291 103.108C79.8046 103.761 80.5312 103.843 81.3295 103.353C81.7082 103.138 82.1278 103.118 82.5576 103.138C82.5781 103.138 82.6088 103.138 82.6293 103.128C82.8851 103.077 83.1205 103.026 83.1819 102.679C83.3252 101.902 83.0284 101.187 82.3427 100.738C81.5751 100.503 80.7768 100.472 79.9888 100.442C79.7022 100.431 79.4259 100.421 79.1393 100.401C78.9039 100.38 78.6276 100.247 78.382 100.135C78.3513 100.115 78.3104 100.104 78.2796 100.084C77.7065 99.8082 77.3893 99.6448 76.9696 99.4201C76.8161 99.3384 76.6422 99.2464 76.4477 99.1443C76.4477 99.1443 74.8716 98.2556 75.0353 97.704C75.1991 97.3567 75.5061 97.4792 75.6494 97.6223C75.9667 97.9593 76.6217 98.3475 77.0618 98.6029C77.0822 98.6131 77.1027 98.6233 77.1232 98.6437C77.5018 98.8685 77.8805 99.2873 78.2285 99.6652C78.3513 99.798 78.4639 99.9206 78.5764 100.033C79.344 100.82 80.5926 99.941 81.1248 99.2771C81.4318 98.8072 80.9099 98.0717 80.9099 98.0717C80.9099 98.0717 80.1321 97.2034 79.4464 97.0604C79.0779 96.9889 78.6993 96.8459 78.5867 96.3965C78.5867 96.2535 78.4946 96.2024 78.3718 96.1717C77.4302 96.0287 77.2153 95.3341 77.0618 94.5271C76.9901 94.1492 77.1948 93.7304 77.3893 93.332C77.6349 92.8315 77.8703 92.3514 77.5837 91.9428C77.3381 91.6057 77.5325 91.3809 77.8191 91.2379C77.8498 91.2175 77.8907 91.2073 77.9214 91.1869C78.1875 91.0439 78.4843 90.8906 78.7402 91.1051C78.8732 91.2175 78.8118 91.4014 78.7402 91.6057C78.6686 91.8202 78.5867 92.0551 78.7095 92.2594C78.8835 92.5352 79.0882 92.7804 79.4566 92.5046C79.5487 92.3718 79.7227 92.3616 79.7943 92.4229C80.2242 92.811 80.5722 92.5863 80.9099 92.3003C80.9201 92.3003 80.9304 92.2799 80.9406 92.2799C81.1146 92.1471 81.2886 92.0143 81.2476 91.7385C81.2476 91.7385 81.2476 91.7283 81.2476 91.718C81.2272 91.6057 81.2067 91.4524 81.35 91.4014C81.4932 91.3503 81.5547 91.432 81.6161 91.524C81.6365 91.5546 81.657 91.5852 81.6877 91.6159C82.0459 91.9632 82.2199 91.953 82.6293 91.5648C82.6293 91.2277 82.7623 90.9621 83.0591 90.7987C83.4275 90.5842 83.448 90.3186 83.2331 89.9917C83.1307 89.9406 83.141 89.8487 83.1614 89.767C83.1614 89.4401 82.9568 89.4299 82.7623 89.4197C82.6907 89.4197 82.619 89.4197 82.5474 89.389C82.5269 89.389 82.5167 89.3788 82.4962 89.3686C82.3836 89.338 82.2915 89.3073 82.2711 89.1745C82.2506 89.0213 82.3529 88.9396 82.486 88.9089C82.9056 88.7966 82.9056 88.5003 82.8032 88.1735C82.66 87.7444 82.7111 87.3461 82.8237 86.8966C82.9875 86.2428 83.0386 85.5584 82.66 84.9251C82.2813 84.3122 81.6263 83.4542 80.9099 83.2192C79.6306 82.8004 78.4946 82.9332 77.2972 83.4542C75.8234 84.0977 75.1582 85.7321 75.7825 86.774C75.9462 86.917 75.9667 87.1315 75.8234 87.2337C75.6187 87.3767 75.3526 87.3767 75.1377 87.203C74.8511 86.866 74.5236 86.5799 74.0733 86.5595C72.9987 86.5084 71.9343 86.5391 71.0542 87.3052C70.3992 87.5197 68.5058 87.9896 66.9809 88.3675C66.2031 88.5616 65.5174 88.7353 65.1285 88.8374C65.0159 88.8681 64.7498 88.9192 64.3916 88.9907C62.5596 89.3482 58.2305 90.1858 58.5682 91.2073C58.5989 91.3094 58.6808 91.4014 58.7525 91.4933C58.8855 91.6567 59.0186 91.81 58.8753 91.9734C58.732 92.1368 58.5682 92.1368 58.4045 91.9938C58.0565 91.6261 57.6267 91.5546 57.115 91.7487C57.0843 91.7589 57.0536 91.7691 57.0331 91.7895C56.8591 91.861 56.6646 91.953 56.5214 91.7895C56.4088 91.667 56.46 91.5444 56.5214 91.4116C56.5214 91.4116 56.5214 91.4014 56.5214 91.3912C56.6135 91.1766 56.7363 90.9723 56.8693 90.7783C56.9819 90.6046 57.0843 90.431 57.1764 90.2471C57.3504 89.8896 57.3094 89.5933 57.0638 89.338C56.6646 88.9294 56.1734 88.6842 55.5798 88.7761C55.283 88.8272 54.9964 88.9089 55.0169 89.3073C55.0169 89.4197 54.9964 89.5423 54.8532 89.5525C54.7713 89.5525 54.7406 89.5014 54.6996 89.4401C54.6894 89.4197 54.6792 89.3993 54.6587 89.3788C54.3005 88.9294 54.1675 88.9089 53.7171 89.2562C53.2157 89.6342 52.7961 90.5127 52.5504 91.0745C52.5095 91.1664 52.4583 91.2584 52.4174 91.3401C52.2536 91.6363 52.0796 91.9428 52.3457 92.3105C52.3457 92.3411 52.3457 92.3616 52.356 92.3922C52.356 92.4229 52.3662 92.4535 52.3662 92.4944C52.7142 92.7906 53.0007 92.7089 53.1747 92.5863C53.1338 92.6476 53.1133 92.7089 53.1236 92.8008C53.1952 93.3831 52.8677 93.5465 52.3662 93.5363C51.9466 93.5363 51.5372 93.6793 51.1176 93.8223C50.8208 93.9347 50.5138 94.0368 50.1965 94.0879C49.388 94.2207 49.562 95.3852 49.7871 95.8551C49.8588 96.0185 50.0532 96.611 49.6746 96.5293C49.3675 96.3863 49.1629 96.0185 48.9786 95.661C48.8763 95.4771 48.7842 95.2933 48.6716 95.1605C48.3953 94.8234 48.1189 94.6191 47.8221 94.4046C47.6379 94.2718 47.4537 94.139 47.249 93.9551C47.1262 93.8427 47.0034 93.7406 46.8806 93.6384C46.3586 93.2094 45.8981 92.8315 45.7753 92.0858C45.7446 91.9223 45.7446 91.7589 45.7343 91.6057C45.7139 91.1256 45.6934 90.6761 45.1305 90.4105C41.4939 89.8044 38.5327 89.2937 36.2471 88.8783C36.0117 88.8374 35.7968 88.7966 35.5818 88.7557C34.323 88.5208 33.4326 88.3471 31.9793 88.4288C30.5158 88.5003 29.4514 88.9191 28.5713 89.9815C28.0493 90.717 28.08 91.4627 28.5406 92.2084C30.0348 94.5986 34.4356 94.19 36.7997 93.8734C36.8304 93.8734 36.8714 93.8632 36.9123 93.853C37.1272 93.8121 37.4036 93.761 37.4854 94.0266C37.5775 94.3126 36.0117 94.997 35.2441 95.3341C35.0701 95.4158 34.9268 95.4669 34.8654 95.4976C34.5789 95.6201 34.2821 95.7427 33.9955 95.8551C33.0437 96.2432 32.0919 96.6314 31.2118 97.1728C30.8638 97.4282 30.5465 97.9083 31.2322 97.9593C31.9896 98.0104 33.4429 97.6325 33.4429 97.6325C33.7704 97.5508 34.1081 97.469 34.4458 97.3873C36.1754 96.9787 37.9664 96.5497 39.5221 95.7121C39.6961 95.6303 39.87 95.5384 40.0236 95.4567C40.7502 95.0787 41.3745 94.7621 42.3365 94.6497H42.357C43.0427 94.568 44.1582 94.425 44.5779 95.089C45.1203 95.9266 45.4682 96.7948 45.8162 97.6529C46.1028 98.3577 46.3893 99.0626 46.7782 99.7367C47.075 100.38 47.5561 100.809 48.2111 101.126C48.8865 101.443 49.4904 101.861 49.91 102.556C49.9611 102.638 50.0225 102.719 50.0942 102.791C49.9407 102.393 49.8076 101.913 49.695 101.351C49.3982 99.9615 49.5722 99.1341 49.9407 98.6437C50.2682 98.2045 50.7185 98.0921 50.872 98.0411C51.22 97.9491 51.5577 97.8572 51.9057 97.755C52.0796 97.704 52.2434 97.6631 52.4174 97.612L67.6666 93.5669C67.6871 93.5669 67.7382 93.5465 67.8304 93.5261C67.9327 93.5056 68.076 93.475 68.25 93.4546C68.5979 93.4035 69.0687 93.3729 69.5804 93.4444C70.0921 93.5159 70.6448 93.6793 71.1258 94.0368C71.6171 94.4046 72.0162 94.9459 72.2414 95.7427C72.5075 96.6723 72.5177 97.418 72.3539 98.0308C72.2209 98.562 71.965 98.9604 71.6682 99.2669C71.6682 99.6039 71.8218 99.9002 72.0981 100.186C72.7429 100.789 73.8993 101.208 74.8921 101.565L74.9125 101.494Z" fill="white"/>
<path fill-rule="evenodd" clip-rule="evenodd" d="M50.4097 98.9399C50.1947 99.2259 49.9901 99.849 50.2664 101.157C50.6348 102.903 51.1158 103.567 51.5457 103.802C51.9551 104.027 52.3951 103.945 52.958 103.833C52.999 103.833 53.0399 103.812 53.0808 103.812L59.7844 102.045C59.4978 101.422 59.1294 100.339 58.8735 99.3791C58.6483 98.5313 58.5562 97.7243 58.5255 97.1216C58.5153 96.9071 58.5051 96.7233 58.5051 96.57L52.5384 98.1533L51.0544 98.5722C51.034 98.5722 51.0135 98.5824 50.9828 98.5926C50.819 98.6437 50.5836 98.705 50.3892 98.9603L50.4097 98.9399ZM61.5958 101.565L60.5929 101.831C60.3472 101.34 59.9481 100.217 59.6718 99.1646C59.4671 98.3883 59.3852 97.6324 59.3545 97.0706C59.3443 96.7846 59.334 96.5598 59.334 96.3964C59.334 96.376 59.334 96.3555 59.334 96.3453L66.0478 94.5679C66.0478 94.7109 66.0478 94.8744 66.058 95.0582C66.0785 95.6303 66.1604 96.4168 66.3651 97.2544C66.6209 98.2759 67.061 99.4404 67.3987 100.104L61.5958 101.575V101.565ZM68.2175 99.8797L69.8652 99.4609H69.8754C69.8754 99.4609 69.8754 99.4609 69.8959 99.4609C69.9164 99.4609 69.9369 99.4609 69.9778 99.4404C70.0494 99.42 70.1518 99.3996 70.2644 99.3485C70.4997 99.2566 70.8068 99.1033 71.0831 98.8582C71.3594 98.613 71.5948 98.2759 71.7176 97.7958C71.8404 97.3157 71.8507 96.6824 71.6051 95.8346C71.4106 95.1706 71.0831 94.7416 70.7147 94.4555C70.336 94.1797 69.8959 94.0367 69.4558 93.9755C69.0158 93.9142 68.5962 93.9448 68.2891 93.9857C68.1356 94.0061 68.0128 94.0265 67.9207 94.047C67.8797 94.047 67.849 94.0674 67.8183 94.0674C67.8081 94.0674 67.7979 94.0674 67.7979 94.0674L66.8768 94.3125C66.8768 94.3228 66.8768 94.3432 66.8768 94.3534C66.8768 94.5066 66.8768 94.7211 66.8768 94.9867C66.8972 95.5179 66.9689 96.2432 67.1633 97.0195C67.4397 98.1125 67.9309 99.3383 68.2175 99.8592V99.8797Z" fill="white"/>
<path d="M15.1016 109.768C17.2303 111.116 19.2977 111.627 21.6516 112.434C23.2686 112.986 23.852 113.629 25.5918 113.629C27.3316 113.629 28.9487 112.699 30.3712 112.434C31.9678 112.127 34.1273 111.811 35.9285 112.24C40.1451 113.241 43.287 114.671 46.5313 116.448C49.663 118.164 51.5052 120.82 54.1355 121.546C56.3154 122.148 58.2702 123.282 60.3682 124.099C61.8624 124.682 63.4385 124.957 65.0248 125.039C67.1536 125.151 69.1391 124.375 70.9198 123.221C72.9258 121.924 74.1846 120.994 75.6277 120.442C77.0298 119.901 78.8617 120.177 79.6805 120.167C82.147 120.146 83.0783 118.124 85.4527 118.021C86.5273 117.981 88.4616 118.399 90.3959 118.297C91.3784 118.246 91.9105 118.093 92.893 118.021C95.9531 117.817 98.9211 118.083 101.899 118.747C103.967 119.206 106.484 119.973 108.623 119.615C110.916 119.237 112.911 118.307 115.368 118.297C116.545 118.297 117.763 117.95 118.909 118.747C120.178 119.615 120.669 119.595 121.897 120.146C123.627 120.923 125.397 121.484 127.281 121.443C129.338 121.392 129.839 121.106 132.838 121.28C134.608 121.26 138.18 121.014 139.94 121.117C141.22 121.188 141.813 121.546 143.052 121.842" stroke="white" stroke-width="1.20329" stroke-linecap="round"/>
<path d="M145.537 81.1967C144.432 81.595 103.423 94.6599 83.0664 101.146M83.4041 102.648L145.537 110.513" stroke="white" stroke-width="0.567265" stroke-linecap="round"/>
<path d="M15 90.4616C15.4298 90.2471 16.5249 89.481 17.8247 88.6229C20.6289 86.7843 22.6758 86.6923 25.3777 84.4655C26.5239 83.5155 27.3938 82.8515 28.1409 81.8811C28.8266 81.0128 29.4816 80.0526 30.2595 79.0311C32.4598 76.1403 33.1148 73.7602 34.7012 71.2167C35.612 69.756 36.3796 68.1216 37.5156 66.8243C39.0303 65.1082 39.6341 64.526 42.3667 63.6168C44.4648 63.2797 46.747 63.9131 48.8041 63.2797C52.2429 61.676 56.2445 58.8669 58.578 56.1293C59.4888 55.067 61.3515 52.738 61.3515 52.738C61.3515 52.738 65.2303 46.8644 66.5403 43.8101C67.2363 42.1757 68.0141 39.4688 69.7437 40.8887C70.7159 41.6854 70.9718 43.6263 71.1765 44.7805C71.5859 47.0585 72.3739 49.5203 74.4617 50.8584C75.7717 51.696 76.7235 52.3089 78.187 52.9116C79.5482 53.4734 80.9298 53.9025 82.3012 54.4643C84.7575 55.4653 84.7473 57.8046 86.743 59.4492C88.8205 61.1653 91.9318 61.676 94.3573 62.6669C96.046 63.3615 97.7756 64.2399 99.3517 65.1593C103.292 67.3249 103.63 68.9797 106.956 69.3576C109.852 69.8479 112.912 69.5926 115.839 69.5926C118.766 69.5926 117.937 69.1431 119.728 68.8673C120.455 68.7549 120.066 69.4496 120.557 69.6947C121.386 70.1033 123.014 71.0227 124.835 70.8592C126.35 70.7162 128.847 70.5017 131.498 70.0318C134.056 69.5721 135.888 68.9797 138.16 68.4791C139.327 68.142 140.76 68.5609 141.548 67.7539C142.152 67.141 143.534 66.2523 145.089 66.4259" stroke="white" stroke-width="1.20329" stroke-linecap="round"/>
<path d="M41.5798 144.228C40.9946 144.228 40.4608 144.125 39.9784 143.919C39.496 143.714 39.0809 143.419 38.7329 143.036C38.385 142.648 38.1161 142.182 37.9263 141.636C37.7405 141.086 37.6475 140.468 37.6475 139.78C37.6475 138.87 37.8097 138.083 38.1339 137.419C38.4581 136.755 38.9148 136.243 39.504 135.883C40.0931 135.519 40.7851 135.337 41.5798 135.337C42.5367 135.337 43.3077 135.561 43.8929 136.007C44.4781 136.45 44.8814 137.057 45.1029 137.828L44.0353 138.048C43.8573 137.53 43.5647 137.117 43.1575 136.808C42.7502 136.5 42.2421 136.346 41.6332 136.346C40.9966 136.342 40.4668 136.484 40.0437 136.773C39.6246 137.057 39.3082 137.459 39.0947 137.977C38.8812 138.495 38.7725 139.096 38.7685 139.78C38.7646 140.46 38.8693 141.057 39.0829 141.571C39.2964 142.085 39.6147 142.488 40.0377 142.781C40.4648 143.069 40.9966 143.216 41.6332 143.22C42.1828 143.224 42.6454 143.119 43.0211 142.905C43.3967 142.692 43.6873 142.383 43.8929 141.98C44.0985 141.577 44.2231 141.092 44.2666 140.527H42.4517V139.655H45.3816C45.3935 139.734 45.3994 139.829 45.3994 139.94C45.4034 140.046 45.4053 140.12 45.4053 140.159C45.4053 140.938 45.259 141.636 44.9664 142.253C44.6778 142.866 44.2488 143.348 43.6794 143.7C43.114 144.052 42.4141 144.228 41.5798 144.228ZM49.3657 144.228C48.737 144.228 48.1874 144.089 47.7169 143.813C47.2503 143.532 46.8865 143.142 46.6256 142.644C46.3646 142.142 46.2341 141.557 46.2341 140.889C46.2341 140.189 46.3626 139.584 46.6196 139.074C46.8766 138.56 47.2345 138.164 47.6931 137.888C48.1558 137.607 48.6975 137.466 49.3182 137.466C49.9627 137.466 50.5104 137.615 50.9611 137.911C51.4159 138.208 51.7559 138.631 51.9813 139.181C52.2106 139.73 52.3095 140.385 52.2778 141.144H51.2102V140.764C51.1984 139.977 51.0382 139.39 50.7298 139.003C50.4214 138.611 49.9627 138.415 49.3538 138.415C48.7014 138.415 48.2052 138.625 47.8651 139.044C47.5251 139.463 47.3551 140.064 47.3551 140.847C47.3551 141.602 47.5251 142.188 47.8651 142.603C48.2052 143.018 48.6896 143.226 49.3182 143.226C49.7413 143.226 50.109 143.129 50.4214 142.935C50.7338 142.741 50.9789 142.462 51.1569 142.099L52.1711 142.449C51.922 143.014 51.5463 143.453 51.0442 143.765C50.546 144.074 49.9865 144.228 49.3657 144.228ZM46.9992 141.144V140.296H51.7322V141.144H46.9992ZM56.3266 144.228C55.69 144.228 55.1404 144.084 54.6778 143.795C54.2191 143.506 53.8652 143.107 53.6161 142.597C53.367 142.087 53.2425 141.502 53.2425 140.841C53.2425 140.169 53.369 139.58 53.622 139.074C53.8751 138.568 54.2329 138.174 54.6956 137.894C55.1582 137.609 55.7019 137.466 56.3266 137.466C56.9671 137.466 57.5187 137.611 57.9814 137.899C58.444 138.184 58.7979 138.582 59.043 139.092C59.2921 139.598 59.4167 140.181 59.4167 140.841C59.4167 141.509 59.2921 142.099 59.043 142.609C58.7939 143.115 58.438 143.512 57.9754 143.801C57.5128 144.086 56.9632 144.228 56.3266 144.228ZM56.3266 143.226C56.9909 143.226 57.4851 143.004 57.8094 142.561C58.1336 142.118 58.2957 141.545 58.2957 140.841C58.2957 140.118 58.1316 139.542 57.8034 139.115C57.4752 138.684 56.983 138.469 56.3266 138.469C55.8798 138.469 55.5121 138.57 55.2234 138.771C54.9348 138.973 54.7193 139.252 54.5769 139.608C54.4346 139.963 54.3634 140.375 54.3634 140.841C54.3634 141.561 54.5295 142.138 54.8616 142.573C55.1938 143.008 55.6821 143.226 56.3266 143.226ZM60.7225 144.05V135.509H63.3559C63.4429 135.509 63.5951 135.511 63.8126 135.515C64.03 135.519 64.2376 135.535 64.4353 135.563C65.0957 135.65 65.6472 135.891 66.0901 136.286C66.5369 136.678 66.873 137.176 67.0984 137.781C67.3237 138.386 67.4364 139.052 67.4364 139.78C67.4364 140.507 67.3237 141.173 67.0984 141.778C66.873 142.383 66.5369 142.883 66.0901 143.279C65.6472 143.67 65.0957 143.91 64.4353 143.997C64.2376 144.02 64.0281 144.036 63.8066 144.044C63.5892 144.048 63.4389 144.05 63.3559 144.05H60.7225ZM61.8079 143.042H63.3559C63.5061 143.042 63.6742 143.038 63.86 143.03C64.0459 143.018 64.208 143 64.3464 142.976C64.8129 142.889 65.1906 142.694 65.4792 142.389C65.7678 142.085 65.9794 141.705 66.1138 141.25C66.2483 140.796 66.3155 140.305 66.3155 139.78C66.3155 139.242 66.2463 138.746 66.1079 138.291C65.9734 137.836 65.7619 137.459 65.4733 137.158C65.1846 136.858 64.809 136.666 64.3464 136.583C64.208 136.555 64.0439 136.537 63.8541 136.529C63.6643 136.521 63.4982 136.518 63.3559 136.518H61.8079V143.042ZM68.9152 136.512V135.42H69.9709V136.512H68.9152ZM68.9152 144.05V137.644H69.9709V144.05H68.9152ZM73.4824 144.05L71.1574 137.644H72.225L74.0221 142.704L75.8133 137.644H76.8868L74.5618 144.05H73.4824ZM78.0782 136.512V135.42H79.1339V136.512H78.0782ZM78.0782 144.05V137.644H79.1339V144.05H78.0782ZM85.4745 144.05V140.841C85.4745 140.537 85.4468 140.244 85.3914 139.963C85.34 139.683 85.2471 139.432 85.1127 139.21C84.9822 138.985 84.8043 138.807 84.5789 138.676C84.3575 138.546 84.0767 138.481 83.7367 138.481C83.4718 138.481 83.2306 138.526 83.0131 138.617C82.7996 138.704 82.6157 138.839 82.4615 139.02C82.3073 139.202 82.1867 139.432 82.0997 139.708C82.0167 139.981 81.9752 140.303 81.9752 140.675L81.2812 140.462C81.2812 139.841 81.3919 139.309 81.6134 138.866C81.8387 138.419 82.1531 138.077 82.5564 137.84C82.9637 137.599 83.4421 137.478 83.9917 137.478C84.4069 137.478 84.7608 137.544 85.0534 137.674C85.346 137.805 85.5891 137.979 85.7829 138.196C85.9766 138.41 86.1289 138.651 86.2396 138.92C86.3503 139.185 86.4274 139.455 86.4709 139.732C86.5183 140.005 86.5421 140.264 86.5421 140.509V144.05H85.4745ZM80.9076 144.05V137.644H81.8565V139.358H81.9752V144.05H80.9076ZM90.6759 147.075C90.3398 147.075 90.0116 147.023 89.6913 146.921C89.3711 146.818 89.0765 146.662 88.8076 146.452C88.5427 146.246 88.3213 145.985 88.1433 145.669L89.1101 145.159C89.2683 145.471 89.4917 145.699 89.7803 145.841C90.0729 145.983 90.3734 146.055 90.6818 146.055C91.0891 146.055 91.4272 145.979 91.696 145.829C91.9649 145.683 92.1626 145.463 92.2891 145.171C92.4196 144.878 92.4829 144.515 92.4789 144.08V142.33H92.6035V137.644H93.5406V144.091C93.5406 144.265 93.5347 144.433 93.5228 144.596C93.5149 144.758 93.4951 144.918 93.4635 145.076C93.3805 145.531 93.2164 145.904 92.9712 146.197C92.7261 146.494 92.4097 146.713 92.0222 146.855C91.6347 147.002 91.186 147.075 90.6759 147.075ZM90.5988 144.228C90.0017 144.228 89.4897 144.08 89.0627 143.783C88.6356 143.483 88.3055 143.077 88.0722 142.567C87.8428 142.057 87.7282 141.482 87.7282 140.841C87.7282 140.201 87.8428 139.625 88.0722 139.115C88.3055 138.605 88.6356 138.204 89.0627 137.911C89.4897 137.615 89.9998 137.466 90.5929 137.466C91.1978 137.466 91.7059 137.613 92.1171 137.905C92.5284 138.198 92.8387 138.599 93.0483 139.109C93.2618 139.619 93.3686 140.197 93.3686 140.841C93.3686 141.478 93.2618 142.053 93.0483 142.567C92.8387 143.077 92.5284 143.483 92.1171 143.783C91.7059 144.08 91.1998 144.228 90.5988 144.228ZM90.7293 143.261C91.1603 143.261 91.5142 143.158 91.7909 142.953C92.0677 142.743 92.2713 142.456 92.4018 142.093C92.5363 141.725 92.6035 141.308 92.6035 140.841C92.6035 140.367 92.5363 139.95 92.4018 139.59C92.2713 139.226 92.0697 138.943 91.7969 138.742C91.524 138.536 91.1781 138.433 90.7589 138.433C90.324 138.433 89.9642 138.54 89.6795 138.754C89.3988 138.967 89.1892 139.256 89.0508 139.619C88.9164 139.983 88.8491 140.39 88.8491 140.841C88.8491 141.296 88.9183 141.707 89.0567 142.075C89.1951 142.439 89.4027 142.727 89.6795 142.941C89.9602 143.154 90.3102 143.261 90.7293 143.261ZM98.2274 144.228C97.6224 144.228 97.0768 144.125 96.5904 143.919C96.108 143.714 95.7087 143.421 95.3924 143.042C95.08 142.658 94.8764 142.205 94.7815 141.683L95.8728 141.511C96.0112 142.049 96.2978 142.47 96.7328 142.775C97.1717 143.075 97.6877 143.226 98.2808 143.226C98.6643 143.226 99.0103 143.166 99.3187 143.048C99.6311 142.925 99.8782 142.751 100.06 142.526C100.242 142.3 100.333 142.033 100.333 141.725C100.333 141.535 100.299 141.373 100.232 141.239C100.169 141.1 100.08 140.984 99.9652 140.889C99.8545 140.79 99.728 140.707 99.5856 140.64C99.4433 140.572 99.295 140.517 99.1408 140.474L96.9641 139.827C96.7269 139.756 96.4975 139.667 96.2761 139.56C96.0547 139.449 95.857 139.313 95.683 139.151C95.509 138.985 95.3706 138.787 95.2678 138.558C95.165 138.325 95.1136 138.05 95.1136 137.733C95.1136 137.227 95.2441 136.796 95.5051 136.44C95.77 136.081 96.1278 135.806 96.5786 135.616C97.0293 135.426 97.5374 135.333 98.1029 135.337C98.6762 135.341 99.1882 135.444 99.639 135.646C100.094 135.843 100.469 136.128 100.766 136.5C101.066 136.871 101.268 137.316 101.371 137.834L100.25 138.03C100.191 137.682 100.058 137.383 99.8525 137.134C99.6509 136.881 99.3978 136.688 99.0933 136.553C98.7889 136.415 98.4548 136.344 98.091 136.34C97.743 136.336 97.4287 136.391 97.148 136.506C96.8672 136.62 96.6438 136.78 96.4778 136.986C96.3117 137.188 96.2286 137.421 96.2286 137.686C96.2286 137.947 96.3038 138.158 96.454 138.321C96.6043 138.479 96.7881 138.605 97.0056 138.7C97.227 138.791 97.4425 138.866 97.6521 138.926L99.2772 139.394C99.463 139.445 99.6766 139.517 99.9178 139.608C100.163 139.699 100.4 139.827 100.629 139.993C100.859 140.155 101.049 140.373 101.199 140.646C101.349 140.914 101.424 141.254 101.424 141.666C101.424 142.077 101.341 142.443 101.175 142.763C101.013 143.083 100.786 143.352 100.493 143.57C100.2 143.783 99.8604 143.945 99.4729 144.056C99.0854 144.171 98.6703 144.228 98.2274 144.228ZM107.229 144.05V140.841C107.229 140.537 107.202 140.244 107.146 139.963C107.095 139.683 107.002 139.432 106.868 139.21C106.737 138.985 106.559 138.807 106.334 138.676C106.112 138.546 105.832 138.481 105.492 138.481C105.227 138.481 104.985 138.526 104.768 138.617C104.554 138.704 104.371 138.839 104.216 139.02C104.062 139.202 103.942 139.432 103.855 139.708C103.772 139.981 103.73 140.303 103.73 140.675L103.036 140.462C103.036 139.841 103.147 139.309 103.368 138.866C103.594 138.419 103.908 138.077 104.311 137.84C104.719 137.599 105.197 137.478 105.747 137.478C106.162 137.478 106.516 137.544 106.808 137.674C107.101 137.805 107.344 137.979 107.538 138.196C107.731 138.41 107.884 138.651 107.994 138.92C108.105 139.185 108.182 139.455 108.226 139.732C108.273 140.005 108.297 140.264 108.297 140.509V144.05H107.229ZM102.662 144.05V135.509H103.611V140.224H103.73V144.05H102.662ZM112.567 144.228C111.931 144.228 111.381 144.084 110.918 143.795C110.46 143.506 110.106 143.107 109.857 142.597C109.608 142.087 109.483 141.502 109.483 140.841C109.483 140.169 109.61 139.58 109.863 139.074C110.116 138.568 110.474 138.174 110.936 137.894C111.399 137.609 111.942 137.466 112.567 137.466C113.208 137.466 113.759 137.611 114.222 137.899C114.685 138.184 115.038 138.582 115.284 139.092C115.533 139.598 115.657 140.181 115.657 140.841C115.657 141.509 115.533 142.099 115.284 142.609C115.034 143.115 114.679 143.512 114.216 143.801C113.753 144.086 113.204 144.228 112.567 144.228ZM112.567 143.226C113.231 143.226 113.726 143.004 114.05 142.561C114.374 142.118 114.536 141.545 114.536 140.841C114.536 140.118 114.372 139.542 114.044 139.115C113.716 138.684 113.224 138.469 112.567 138.469C112.12 138.469 111.753 138.57 111.464 138.771C111.175 138.973 110.96 139.252 110.818 139.608C110.675 139.963 110.604 140.375 110.604 140.841C110.604 141.561 110.77 142.138 111.102 142.573C111.434 143.008 111.923 143.226 112.567 143.226ZM119.905 144.228C119.304 144.228 118.798 144.08 118.387 143.783C117.975 143.483 117.663 143.077 117.449 142.567C117.24 142.053 117.135 141.478 117.135 140.841C117.135 140.197 117.24 139.619 117.449 139.109C117.663 138.599 117.975 138.198 118.387 137.905C118.802 137.613 119.31 137.466 119.911 137.466C120.504 137.466 121.014 137.615 121.441 137.911C121.872 138.204 122.202 138.605 122.431 139.115C122.661 139.625 122.775 140.201 122.775 140.841C122.775 141.482 122.661 142.057 122.431 142.567C122.202 143.077 121.872 143.483 121.441 143.783C121.014 144.08 120.502 144.228 119.905 144.228ZM116.957 146.897V137.644H117.9V142.36H118.019V146.897H116.957ZM119.774 143.261C120.197 143.261 120.547 143.154 120.824 142.941C121.101 142.727 121.309 142.439 121.447 142.075C121.585 141.707 121.655 141.296 121.655 140.841C121.655 140.39 121.585 139.983 121.447 139.619C121.312 139.256 121.103 138.967 120.818 138.754C120.538 138.54 120.18 138.433 119.745 138.433C119.33 138.433 118.986 138.536 118.713 138.742C118.44 138.943 118.236 139.226 118.102 139.59C117.967 139.95 117.9 140.367 117.9 140.841C117.9 141.308 117.965 141.725 118.096 142.093C118.23 142.456 118.436 142.743 118.713 142.953C118.99 143.158 119.343 143.261 119.774 143.261Z" fill="white"/>
</svg>
