<svg width="160" height="160" viewBox="0 0 160 160" fill="none" xmlns="http://www.w3.org/2000/svg">
<rect width="160" height="160" fill="black"/>
<mask id="mask0_2001_644" style="mask-type:luminance" maskUnits="userSpaceOnUse" x="14" y="40" width="131" height="106">
<path d="M145 40H14V145.724H145V40Z" fill="white"/>
</mask>
<g mask="url(#mask0_2001_644)">
<path d="M33.3324 130.126V131.423L32.2373 130.606C32.1145 130.514 31.9815 130.453 31.8587 130.422C31.7563 130.402 31.6233 130.392 31.4595 130.392C30.5794 130.392 29.9141 130.739 29.4741 131.444C29.1056 132.026 28.9214 132.792 28.9214 133.722C28.9214 134.651 29.1363 135.642 29.5764 136.194C30.037 136.786 30.6715 137.072 31.4902 137.042H31.787C31.787 137.031 32.309 136.991 32.309 136.991V135.479C32.309 135.305 32.2783 135.152 32.2066 135.019L31.8894 134.376H33.7111L33.4245 135.009C33.3427 135.172 33.3017 135.356 33.3017 135.56V137.256C32.5955 137.42 31.8791 137.511 31.1423 137.511C30.0984 137.511 29.2694 137.195 28.6758 136.562C28.0822 135.928 27.7854 135.029 27.7854 133.885C27.7854 132.741 28.1231 131.658 28.7884 130.964C29.4638 130.269 30.3952 129.922 31.6028 129.922C32.8105 129.922 32.2885 129.932 32.4932 129.963C32.5751 129.973 32.6774 129.983 32.8309 130.004C32.964 130.024 33.138 130.065 33.3427 130.126H33.3324Z" fill="white" stroke="white" stroke-width="0.171899" stroke-miterlimit="10"/>
<path d="M39.1863 134.518H35.7373C35.7373 135.305 35.9216 135.887 36.3002 136.255C36.6789 136.623 37.1906 136.817 37.8456 136.817C38.5006 136.817 37.9787 136.817 38.0401 136.817L38.603 136.786L39.217 136.684C38.9305 136.939 38.603 137.133 38.2448 137.266C37.8661 137.409 37.4874 137.47 37.0883 137.47C36.3514 137.47 35.7578 137.215 35.3382 136.715C34.9391 136.245 34.7344 135.622 34.7344 134.876C34.7344 134.13 34.7958 134.171 34.9084 133.824C35.0209 133.476 35.1847 133.18 35.3894 132.935C35.5941 132.69 35.8602 132.496 36.1774 132.343C36.4947 132.189 36.812 132.108 37.1292 132.108C37.7842 132.108 38.2755 132.312 38.6234 132.721C39.0021 133.18 39.1863 133.783 39.1863 134.539V134.518ZM38.0503 133.936C38.0503 133.476 37.9582 133.119 37.7842 132.864C37.6205 132.629 37.3646 132.506 37.0269 132.506C36.6891 132.506 36.3412 132.649 36.1262 132.945C35.8806 133.272 35.7578 133.691 35.7578 134.212L38.0605 133.936H38.0503Z" fill="white" stroke="white" stroke-width="0.171899" stroke-miterlimit="10"/>
<path d="M42.6579 132.516C42.1462 132.516 41.7777 132.761 41.5526 133.252C41.3786 133.62 41.2865 134.079 41.2865 134.651C41.2865 135.223 41.3786 135.795 41.5628 136.224C41.8084 136.817 42.1973 137.113 42.7398 137.113C43.2822 137.113 43.6199 136.868 43.8451 136.378C44.0191 136.01 44.1112 135.55 44.1112 134.978C44.1112 134.406 44.0191 133.854 43.8348 133.415C43.579 132.823 43.1901 132.527 42.6681 132.527L42.6579 132.516ZM40.1914 134.804C40.1914 134.049 40.4268 133.405 40.8873 132.894C41.3684 132.363 41.9824 132.087 42.7295 132.087C43.4766 132.087 44.0805 132.363 44.541 132.904C44.9709 133.415 45.196 134.059 45.196 134.815C45.196 135.571 44.9709 136.224 44.5103 136.725C44.0395 137.246 43.4255 137.511 42.6579 137.511C41.8903 137.511 41.3479 137.256 40.8873 136.745C40.4268 136.235 40.2016 135.581 40.2016 134.794L40.1914 134.804Z" fill="white" stroke="white" stroke-width="0.171899" stroke-miterlimit="10"/>
<path d="M52.5099 132.271V133.466C52.3564 133.344 52.121 133.18 51.8242 132.966C51.6093 132.812 51.466 132.721 51.3944 132.68C51.1999 132.567 51.0362 132.506 50.9236 132.506C50.7394 132.506 50.5654 132.578 50.4119 132.721C50.2584 132.864 50.1867 133.037 50.1867 133.252C50.1867 133.466 50.2481 133.558 50.3607 133.711C50.5347 133.875 50.7189 134.008 50.9338 134.12L51.6912 134.518C52.0289 134.692 52.2745 134.866 52.4178 135.029C52.6123 135.244 52.7044 135.519 52.7044 135.846C52.7044 136.357 52.5304 136.755 52.1927 137.052C51.8549 137.348 51.3739 137.491 50.7496 137.491C50.1253 137.491 49.8183 137.409 49.2656 137.236V135.979C49.3373 136.03 49.5727 136.224 49.9923 136.541C50.1253 136.643 50.2788 136.755 50.4426 136.878C50.6473 137.001 50.8212 137.072 50.9543 137.072C51.1795 137.072 51.3739 136.99 51.5377 136.827C51.7014 136.664 51.7833 136.459 51.7833 136.234C51.7833 136.01 51.7321 135.887 51.6298 135.754C51.5786 135.683 51.507 135.622 51.4251 135.55C51.3227 135.489 51.2102 135.428 51.0771 135.356L50.4937 135.07C50.1151 134.876 49.8285 134.661 49.6238 134.426C49.4294 134.181 49.3373 133.905 49.3373 133.609C49.3373 133.129 49.5215 132.741 49.8899 132.475C50.2174 132.23 50.637 132.108 51.1385 132.108H51.3841C51.4865 132.108 51.6195 132.118 51.773 132.149L52.5099 132.281V132.271Z" fill="white" stroke="white" stroke-width="0.171899" stroke-miterlimit="10"/>
<path d="M55.1629 132.046V135.734C55.1629 136.377 55.2959 136.909 55.5723 137.348H53.812C53.8529 137.266 53.9245 137.144 54.0064 136.98C54.0473 136.888 54.0883 136.776 54.1292 136.633C54.2009 136.388 54.2316 136.081 54.2316 135.734V133.599C54.2316 133.385 54.2009 133.18 54.1292 132.996C54.0678 132.812 53.945 132.598 53.7812 132.353L55.1629 132.057V132.046ZM54.6614 129.544C54.8354 129.544 54.9787 129.605 55.0912 129.717C55.2038 129.83 55.2652 129.973 55.2652 130.146C55.2652 130.32 55.2141 130.494 55.1015 130.596C55.0094 130.698 54.8661 130.759 54.6614 130.759C54.4567 130.759 54.3339 130.708 54.2316 130.596C54.1292 130.483 54.078 130.34 54.078 130.157C54.078 129.973 54.1292 129.85 54.2418 129.717C54.3646 129.605 54.5079 129.544 54.6614 129.544Z" fill="white" stroke="white" stroke-width="0.171899" stroke-miterlimit="10"/>
<path d="M60.2909 132.792L59.8713 132.659L59.421 132.618C58.8786 132.618 58.459 132.802 58.1417 133.18C57.8347 133.558 57.6812 134.079 57.6812 134.753C57.6812 135.428 57.8449 135.938 58.1827 136.286C58.5409 136.664 59.0321 136.837 59.6359 136.807H59.902C59.902 136.796 60.2705 136.735 60.2705 136.735V132.792H60.2909ZM61.2223 129.401V135.571C61.2223 136.255 61.3655 136.807 61.6623 137.205L60.2909 137.501V136.837C59.9634 137.062 59.6769 137.236 59.421 137.327C59.1549 137.43 58.8991 137.491 58.6739 137.491C58.111 137.491 57.6402 137.246 57.2513 136.766C56.8624 136.286 56.668 135.683 56.668 134.968C56.668 134.253 56.8829 133.609 57.3127 133.027C57.7835 132.404 58.3669 132.087 59.0628 132.087C59.7587 132.087 59.9225 132.21 60.2909 132.445V131.25C60.2909 130.984 60.2602 130.749 60.1886 130.555C60.1272 130.361 59.9839 130.085 59.7588 129.728L61.212 129.391L61.2223 129.401Z" fill="white" stroke="white" stroke-width="0.171899" stroke-miterlimit="10"/>
<path d="M67.1997 134.518H63.7507C63.7507 135.305 63.935 135.887 64.3136 136.255C64.6923 136.623 65.204 136.817 65.8693 136.817C66.5345 136.817 66.0023 136.817 66.0637 136.817L66.6266 136.786L67.2407 136.684C66.9541 136.939 66.6266 137.133 66.2684 137.266C65.8897 137.409 65.5111 137.47 65.1119 137.47C64.375 137.47 63.7814 137.215 63.3618 136.715C62.9627 136.245 62.758 135.622 62.758 134.876C62.758 134.13 62.8194 134.171 62.932 133.824C63.0446 133.476 63.2083 133.18 63.413 132.935C63.6177 132.69 63.8838 132.496 64.2011 132.343C64.5183 132.189 64.8356 132.108 65.1529 132.108C65.8079 132.108 66.2991 132.312 66.6471 132.721C67.0257 133.18 67.21 133.783 67.21 134.539L67.1997 134.518ZM66.0637 133.936C66.0637 133.476 65.9716 133.119 65.7976 132.864C65.6339 132.629 65.378 132.506 65.0403 132.506C64.7025 132.506 64.3546 132.649 64.1397 132.945C63.894 133.272 63.7712 133.691 63.7712 134.212L66.0739 133.936H66.0637Z" fill="white" stroke="white" stroke-width="0.171899" stroke-miterlimit="10"/>
<path d="M69.5941 132.047V132.659L70.2286 132.363C70.4333 132.271 70.5868 132.22 70.6891 132.2C70.9041 132.128 71.1292 132.087 71.3544 132.087C71.8047 132.087 72.1527 132.271 72.3983 132.649C72.6337 132.537 73.0021 132.394 73.4934 132.21C73.7799 132.128 74.0255 132.087 74.2405 132.087C74.7931 132.087 75.182 132.271 75.397 132.649C75.5709 132.945 75.663 133.385 75.663 133.977V135.795C75.663 136.388 75.7961 136.909 76.0724 137.338H74.3223C74.4452 137.134 74.5475 136.899 74.6191 136.633C74.6805 136.408 74.7215 136.102 74.7215 135.724V134.294C74.7215 133.691 74.6089 133.283 74.3838 133.068C74.1381 132.833 73.7288 132.721 73.1352 132.741H72.8179C72.7258 132.751 72.603 132.762 72.4495 132.772C72.5313 132.894 72.5723 133.037 72.5825 133.191L72.6234 133.977V135.724C72.6234 136.357 72.7667 136.899 73.0431 137.338H71.2827C71.5591 136.878 71.6921 136.337 71.6921 135.724V134.294C71.6921 133.732 71.5795 133.334 71.3646 133.099C71.1292 132.843 70.7505 132.731 70.2184 132.751H69.942C69.942 132.762 69.5941 132.782 69.5941 132.782V135.734C69.5941 136.367 69.7373 136.909 70.0137 137.348H68.2534C68.5297 136.888 68.6627 136.347 68.6627 135.734V133.599C68.6627 133.191 68.5195 132.782 68.2227 132.353L69.5941 132.057V132.047Z" fill="white" stroke="white" stroke-width="0.171899" stroke-miterlimit="10"/>
<path d="M79.4821 132.516C78.9704 132.516 78.602 132.761 78.3768 133.252C78.2028 133.62 78.1107 134.079 78.1107 134.651C78.1107 135.223 78.2028 135.795 78.387 136.224C78.6327 136.817 79.0216 137.113 79.564 137.113C80.1064 137.113 80.4441 136.868 80.6693 136.378C80.8433 136.01 80.9354 135.55 80.9354 134.978C80.9354 134.406 80.8433 133.854 80.6591 133.415C80.4032 132.823 80.0143 132.527 79.4923 132.527L79.4821 132.516ZM77.0156 134.804C77.0156 134.049 77.251 133.405 77.7116 132.894C78.1926 132.363 78.8066 132.087 79.5537 132.087C80.3009 132.087 80.9047 132.363 81.3652 132.904C81.7951 133.415 82.0202 134.059 82.0202 134.815C82.0202 135.571 81.7951 136.224 81.3345 136.725C80.8638 137.246 80.2497 137.511 79.4821 137.511C78.7145 137.511 78.1721 137.256 77.7116 136.745C77.251 136.235 77.0259 135.581 77.0259 134.794L77.0156 134.804Z" fill="white" stroke="white" stroke-width="0.171899" stroke-miterlimit="10"/>
<path d="M84.3387 132.046V135.131C84.3387 135.806 84.441 136.235 84.6355 136.439C84.8504 136.653 85.2188 136.756 85.7408 136.735H86.0888C86.0888 136.725 86.5698 136.684 86.5698 136.684V133.579C86.5698 133.364 86.5391 133.16 86.4674 132.976C86.406 132.792 86.2832 132.578 86.1195 132.332L87.5113 132.036V135.918C87.5113 136.112 87.5523 136.316 87.6239 136.521C87.7058 136.725 87.8081 136.939 87.9616 137.144L86.5698 137.46V136.776C86.1502 137.011 85.8022 137.174 85.5259 137.266C85.2291 137.368 84.9527 137.42 84.7173 137.42C84.2466 137.42 83.9088 137.287 83.7041 137.021C83.4995 136.756 83.4073 136.306 83.4073 135.683V133.589C83.4073 133.374 83.3766 133.17 83.305 132.986C83.2436 132.802 83.1208 132.588 82.957 132.343L84.3387 132.046Z" fill="white" stroke="white" stroke-width="0.171899" stroke-miterlimit="10"/>
<path d="M90.3573 132.047V132.659C90.562 132.567 90.7973 132.476 91.0634 132.373C91.2374 132.312 91.4114 132.251 91.5649 132.2C91.8106 132.128 92.0459 132.087 92.2506 132.087C93.1103 132.087 93.5299 132.721 93.5299 133.977V135.724C93.5299 136.357 93.6732 136.899 93.9495 137.338H92.1892C92.4655 136.868 92.6088 136.327 92.6088 135.724V134.294C92.6088 133.712 92.4963 133.313 92.2711 133.088C92.0255 132.843 91.6161 132.731 91.043 132.751H90.7052C90.6234 132.762 90.5108 132.772 90.3675 132.782V135.795C90.3675 136.388 90.5005 136.909 90.7769 137.338H89.0268C89.1496 137.144 89.252 136.909 89.3338 136.633C89.3952 136.408 89.4362 136.102 89.4362 135.724V133.589C89.4362 133.17 89.2929 132.751 88.9961 132.343L90.3777 132.047H90.3573Z" fill="white" stroke="white" stroke-width="0.171899" stroke-miterlimit="10"/>
<path d="M96.286 130.678V132.159H98.0054V132.659H96.286V135.703C96.286 136.163 96.3679 136.469 96.5214 136.623C96.7159 136.766 97.0331 136.827 97.4834 136.817H97.8416C97.8416 136.807 98.2612 136.755 98.2612 136.755C97.9849 136.97 97.6984 137.154 97.3913 137.297C97.0331 137.419 96.7466 137.481 96.5214 137.481C96.0813 137.481 95.7641 137.368 95.5901 137.133C95.4161 136.919 95.3342 136.48 95.3342 135.846V132.67H94.4336C95.2114 132.016 95.8255 131.362 96.2758 130.688L96.286 130.678Z" fill="white" stroke="white" stroke-width="0.171899" stroke-miterlimit="10"/>
<path d="M105.283 132.792L104.864 132.659L104.413 132.618C103.871 132.618 103.451 132.802 103.134 133.18C102.827 133.558 102.673 134.079 102.673 134.753C102.673 135.428 102.837 135.938 103.175 136.286C103.533 136.664 104.024 136.837 104.628 136.807H104.894C104.894 136.796 105.263 136.735 105.263 136.735V132.792H105.283ZM106.214 129.401V135.571C106.214 136.255 106.358 136.807 106.655 137.205L105.283 137.501V136.837C104.956 137.062 104.669 137.236 104.413 137.327C104.147 137.43 103.891 137.491 103.666 137.491C103.103 137.491 102.632 137.246 102.244 136.766C101.855 136.286 101.66 135.683 101.66 134.968C101.66 134.253 101.875 133.609 102.305 133.027C102.776 132.404 103.359 132.087 104.055 132.087C104.751 132.087 104.915 132.21 105.283 132.445V131.25C105.283 130.984 105.252 130.749 105.181 130.555C105.119 130.361 104.976 130.085 104.751 129.728L106.204 129.391L106.214 129.401Z" fill="white" stroke="white" stroke-width="0.171899" stroke-miterlimit="10"/>
<path d="M109.128 132.046V135.734C109.128 136.377 109.261 136.909 109.537 137.348H107.777C107.818 137.266 107.889 137.144 107.971 136.98C108.012 136.888 108.053 136.776 108.094 136.633C108.166 136.388 108.196 136.081 108.196 135.734V133.599C108.196 133.385 108.166 133.18 108.094 132.996C108.033 132.812 107.91 132.598 107.746 132.353L109.128 132.057V132.046ZM108.626 129.544C108.8 129.544 108.944 129.605 109.056 129.717C109.169 129.83 109.23 129.973 109.23 130.146C109.23 130.32 109.179 130.494 109.066 130.596C108.974 130.698 108.831 130.759 108.626 130.759C108.422 130.759 108.299 130.708 108.196 130.596C108.094 130.483 108.043 130.34 108.043 130.157C108.043 129.973 108.094 129.85 108.207 129.717C108.329 129.605 108.473 129.544 108.626 129.544Z" fill="white" stroke="white" stroke-width="0.171899" stroke-miterlimit="10"/>
<path d="M109.928 132.159H111.934L111.903 132.21C111.729 132.506 111.637 132.7 111.637 132.782L111.658 132.976L111.719 133.221L112.825 136.5L113.879 132.925L113.899 132.711C113.899 132.639 113.879 132.567 113.838 132.476L113.623 132.149H115.189C114.861 132.445 114.575 132.905 114.329 133.548L112.865 137.389H112.21L110.86 133.701C110.645 133.048 110.327 132.527 109.918 132.149L109.928 132.159Z" fill="white" stroke="white" stroke-width="0.171899" stroke-miterlimit="10"/>
<path d="M117.018 132.046V135.734C117.018 136.377 117.151 136.909 117.428 137.348H115.667C115.708 137.266 115.78 137.144 115.862 136.98C115.903 136.888 115.944 136.776 115.985 136.633C116.056 136.388 116.087 136.081 116.087 135.734V133.599C116.087 133.385 116.056 133.18 115.985 132.996C115.923 132.812 115.8 132.598 115.637 132.353L117.018 132.057V132.046ZM116.517 129.544C116.691 129.544 116.834 129.605 116.947 129.717C117.059 129.83 117.121 129.973 117.121 130.146C117.121 130.32 117.07 130.494 116.957 130.596C116.875 130.698 116.722 130.759 116.517 130.759C116.312 130.759 116.189 130.708 116.087 130.596C115.985 130.483 115.934 130.34 115.934 130.157C115.934 129.973 115.985 129.85 116.097 129.717C116.22 129.605 116.363 129.544 116.517 129.544Z" fill="white" stroke="white" stroke-width="0.171899" stroke-miterlimit="10"/>
<path d="M119.897 132.046V132.659C120.101 132.567 120.337 132.475 120.603 132.373C120.777 132.312 120.951 132.251 121.104 132.2C121.35 132.128 121.585 132.087 121.79 132.087C122.65 132.087 123.069 132.721 123.069 133.977V135.724C123.069 136.357 123.202 136.899 123.489 137.338H121.728C122.005 136.868 122.148 136.326 122.148 135.724V134.294C122.148 133.711 122.036 133.313 121.81 133.088C121.565 132.843 121.155 132.731 120.582 132.751H120.244C120.163 132.761 120.05 132.772 119.907 132.782V135.795C119.907 136.388 120.04 136.909 120.316 137.338H118.566C118.689 137.144 118.791 136.909 118.873 136.633C118.934 136.408 118.975 136.102 118.975 135.724V133.589C118.975 133.17 118.832 132.751 118.535 132.343L119.917 132.046H119.897Z" fill="white" stroke="white" stroke-width="0.171899" stroke-miterlimit="10"/>
<path d="M125.534 137.277C125.452 137.379 125.39 137.46 125.36 137.511C125.329 137.563 125.288 137.644 125.247 137.736C125.175 137.9 125.145 138.043 125.145 138.165C125.145 138.502 125.308 138.758 125.646 138.931C125.912 139.074 126.229 139.136 126.598 139.136C126.966 139.136 127.386 139.044 127.724 138.87C128.143 138.645 128.348 138.349 128.348 137.981C128.348 137.614 128.246 137.522 128.031 137.43C127.898 137.368 127.662 137.338 127.335 137.338H125.851C125.851 137.328 125.554 137.266 125.554 137.266L125.534 137.277ZM126.475 132.476C125.861 132.476 125.554 132.864 125.554 133.63C125.554 134.396 125.636 134.304 125.8 134.58C125.994 134.907 126.26 135.07 126.588 135.07C126.915 135.07 127.089 134.948 127.263 134.713C127.406 134.498 127.478 134.243 127.478 133.957C127.478 133.671 127.406 133.262 127.263 132.986C127.079 132.649 126.823 132.476 126.475 132.476ZM129.33 132.087V132.894L127.826 132.547C128.102 132.772 128.287 133.068 128.368 133.425C128.399 133.538 128.409 133.65 128.409 133.773C128.409 134.284 128.225 134.692 127.867 134.999C127.529 135.295 127.089 135.438 126.577 135.438H126.342L126.055 135.397L125.953 135.663L125.922 135.867C125.922 136.061 125.984 136.194 126.096 136.286C126.209 136.367 126.424 136.408 126.741 136.408H127.713C128.164 136.408 128.481 136.48 128.686 136.613C128.921 136.776 129.044 137.072 129.044 137.491C129.044 137.91 128.982 138.032 128.849 138.308C128.604 138.829 128.123 139.217 127.406 139.463C127.058 139.585 126.7 139.646 126.342 139.646C125.984 139.646 125.431 139.565 125.012 139.391C124.469 139.166 124.203 138.86 124.203 138.451C124.203 138.043 124.275 138.083 124.418 137.93C124.571 137.777 124.889 137.532 125.39 137.195C125.073 137.072 124.919 136.858 124.919 136.551C124.919 136.245 125.267 135.826 125.953 135.387C125.523 135.315 125.196 135.142 124.95 134.876C124.694 134.6 124.571 134.253 124.571 133.824C124.571 133.395 124.766 132.864 125.145 132.537C125.503 132.23 125.963 132.087 126.506 132.087C127.048 132.087 127.294 132.21 127.662 132.445L129.31 132.087H129.33Z" fill="white" stroke="white" stroke-width="0.171899" stroke-miterlimit="10"/>
<path d="M56.9014 140.372C56.9526 140.372 56.973 140.402 56.973 140.443C56.973 140.484 56.9628 140.545 56.9321 140.586L54.9876 143.998H56.0213C56.5944 143.998 56.7479 143.886 56.9116 143.64C56.9526 143.579 56.9628 143.569 57.014 143.569H57.0345C57.0856 143.569 57.0959 143.589 57.0754 143.671L56.9833 144.059C56.9526 144.182 56.9219 144.192 56.7684 144.192H54.4452C54.394 144.192 54.3633 144.161 54.3633 144.1C54.3633 144.039 54.3837 144.008 54.4042 143.978L56.3897 140.556H55.5095C54.9057 140.556 54.7727 140.668 54.6396 140.903C54.6089 140.954 54.5987 140.974 54.5475 140.974H54.527C54.4759 140.974 54.4656 140.954 54.4759 140.872L54.5373 140.494C54.5577 140.372 54.5884 140.361 54.742 140.361H56.9014V140.372Z" fill="white" stroke="white" stroke-width="0.171899" stroke-miterlimit="10"/>
<path d="M58.6526 141.342C59.3792 141.342 59.6453 141.812 59.6453 142.496C59.6453 143.181 59.6146 142.793 59.5327 142.793H58.0283C58.0283 143.743 58.3353 144.039 58.9084 144.039C59.4816 144.039 59.328 143.988 59.5123 143.896C59.5532 143.875 59.5839 143.875 59.6044 143.916L59.6248 143.967C59.6453 144.008 59.6351 144.029 59.5941 144.059C59.3895 144.182 59.1029 144.264 58.7856 144.264C57.9976 144.264 57.4961 143.753 57.4961 142.813C57.4961 141.873 57.8952 141.342 58.6423 141.342H58.6526ZM58.6526 141.526C58.3046 141.526 58.0692 141.853 58.0385 142.588H58.9596C59.1438 142.588 59.1643 142.537 59.1643 142.364C59.1643 141.832 58.9801 141.536 58.6526 141.536V141.526Z" fill="white" stroke="white" stroke-width="0.171899" stroke-miterlimit="10"/>
<path d="M63.8513 144.223H63.4214C63.3293 144.223 63.3293 144.192 63.3498 144.1C63.3805 143.947 63.3907 143.845 63.3907 143.232V142.394C63.3907 141.884 63.2884 141.618 62.9916 141.618C62.6948 141.618 62.3775 142.027 62.3571 142.731V143.324C62.3571 143.855 62.3775 143.967 62.398 144.11C62.4185 144.202 62.4082 144.233 62.3264 144.233H61.8965C61.8044 144.233 61.8044 144.202 61.8249 144.11C61.8556 143.988 61.8658 143.896 61.8658 143.528V142.333C61.8556 141.894 61.7532 141.618 61.4667 141.618C61.1801 141.618 60.8321 142.047 60.8321 142.782V143.232C60.8321 143.845 60.8526 143.947 60.8731 144.1C60.8935 144.192 60.8833 144.223 60.8014 144.223H60.3716C60.2795 144.223 60.2692 144.192 60.2999 144.1C60.3204 143.967 60.3409 143.875 60.3409 143.477V142.292C60.3409 141.986 60.2999 141.628 60.2692 141.495C60.2488 141.434 60.2692 141.393 60.3409 141.393H60.4535C60.74 141.393 60.8321 141.485 60.8424 141.975C60.9856 141.546 61.2927 141.332 61.6406 141.332C61.9886 141.332 62.2752 141.546 62.3468 142.027C62.4696 141.567 62.7767 141.332 63.1553 141.332C63.534 141.332 63.8922 141.638 63.8922 142.374V143.293C63.8922 143.824 63.9127 143.937 63.9434 144.08C63.9639 144.172 63.9434 144.202 63.8717 144.202L63.8513 144.223Z" fill="white" stroke="white" stroke-width="0.171899" stroke-miterlimit="10"/>
<path d="M66.2688 141.393H66.7294C66.8113 141.393 66.8215 141.414 66.8113 141.495C66.7806 141.659 66.7806 141.955 66.7806 142.292V143.508C66.7806 143.947 66.8624 144.131 66.8624 144.172C66.8624 144.212 66.842 144.233 66.7806 144.233H66.7089C66.4633 144.233 66.3302 144.08 66.2893 143.702C66.1563 144.029 65.8902 144.253 65.5115 144.253C65.1328 144.253 64.6927 143.977 64.6927 143.324V142.353C64.6927 142.006 64.6518 141.628 64.6109 141.495C64.5904 141.434 64.6006 141.393 64.6723 141.393H65.1328C65.2045 141.393 65.2249 141.414 65.2045 141.495C65.1738 141.659 65.1738 141.955 65.1738 142.292V143.273C65.1738 143.712 65.2966 143.998 65.6036 143.998C65.9106 143.998 65.839 143.967 65.9413 143.875C66.1358 143.702 66.2791 143.354 66.2791 142.629V142.292C66.2791 141.955 66.2381 141.618 66.1972 141.495C66.1767 141.434 66.187 141.393 66.2586 141.393H66.2688ZM66.2995 141.046H65.1431C65.0919 141.046 65.051 141.015 65.051 140.954V140.882C65.051 140.821 65.0817 140.79 65.1328 140.79H66.2893C66.3405 140.79 66.3814 140.811 66.3814 140.872V140.944C66.3814 141.005 66.3507 141.036 66.2893 141.036L66.2995 141.046Z" fill="white" stroke="white" stroke-width="0.171899" stroke-miterlimit="10"/>
<path d="M69.7354 143.528C69.7354 143.957 69.8173 144.131 69.8173 144.172C69.8173 144.212 69.7866 144.233 69.7354 144.233H69.6638C69.4181 144.233 69.2748 144.08 69.2441 143.681C69.193 143.814 69.1213 143.916 69.0395 144.008C68.8757 144.161 68.6915 144.253 68.4356 144.253C67.8932 144.253 67.4531 143.865 67.4531 142.925C67.4531 141.986 67.9034 141.342 68.6505 141.342C69.3977 141.342 69.1009 141.444 69.2339 141.567V141.056C69.2339 140.698 69.2032 140.382 69.1725 140.259C69.152 140.198 69.1725 140.157 69.2441 140.157H69.6023C69.7047 140.157 69.7354 140.198 69.7354 140.321V143.528ZM68.5789 143.998C68.978 143.998 69.2032 143.651 69.2441 142.844V141.843C69.1316 141.679 68.9473 141.577 68.712 141.577C68.2105 141.577 67.9955 142.159 67.9955 142.925C67.9955 143.691 68.1695 143.998 68.5687 143.998H68.5789Z" fill="white" stroke="white" stroke-width="0.171899" stroke-miterlimit="10"/>
<path d="M71.5784 141.342C72.305 141.342 72.5711 141.812 72.5711 142.496C72.5711 143.181 72.5404 142.793 72.4585 142.793H70.9541C70.9541 143.743 71.2611 144.039 71.8342 144.039C72.4073 144.039 72.2538 143.988 72.438 143.896C72.479 143.875 72.5097 143.875 72.5302 143.916L72.5506 143.967C72.5711 144.008 72.5609 144.029 72.5199 144.059C72.3152 144.182 72.0287 144.264 71.7114 144.264C70.9234 144.264 70.4219 143.753 70.4219 142.813C70.4219 141.873 70.821 141.342 71.5681 141.342H71.5784ZM71.5784 141.526C71.2304 141.526 70.995 141.853 70.9643 142.588H71.8854C72.0696 142.588 72.0901 142.537 72.0901 142.364C72.0901 141.832 71.9059 141.536 71.5784 141.536V141.526Z" fill="white" stroke="white" stroke-width="0.171899" stroke-miterlimit="10"/>
<path d="M75.3238 144.223H74.8939C74.8121 144.223 74.8018 144.192 74.8223 144.1C74.853 143.957 74.8632 143.845 74.8632 143.303V142.456C74.8632 141.904 74.7404 141.618 74.4436 141.618C73.9524 141.618 73.7579 142.251 73.7579 143.007V143.232C73.7579 143.845 73.7784 143.947 73.7988 144.1C73.8193 144.192 73.8091 144.223 73.7272 144.223H73.2974C73.2053 144.223 73.195 144.192 73.2257 144.1C73.2564 143.947 73.2667 143.845 73.2667 143.232V142.261C73.2667 141.965 73.2257 141.618 73.195 141.506C73.1746 141.444 73.195 141.403 73.2667 141.403H73.3792C73.676 141.403 73.7579 141.506 73.7681 142.006C73.9012 141.638 74.1673 141.352 74.6176 141.352C75.0679 141.352 75.3749 141.669 75.3749 142.415V143.314C75.3749 143.855 75.3852 143.967 75.4159 144.11C75.4363 144.202 75.4261 144.233 75.3442 144.233L75.3238 144.223Z" fill="white" stroke="white" stroke-width="0.171899" stroke-miterlimit="10"/>
<path d="M76.9393 144.029C77.2771 144.029 77.4511 143.855 77.4511 143.579C77.4511 142.813 76.0387 143.16 76.0387 142.149C76.0387 141.138 76.3765 141.342 76.9496 141.342C77.5227 141.342 77.6353 141.505 77.7376 141.608C77.7786 141.648 77.7888 141.679 77.7683 141.74L77.666 142.067C77.6557 142.098 77.6455 142.108 77.6148 142.108H77.5841C77.5534 142.108 77.5329 142.088 77.5329 142.057C77.4613 141.751 77.2464 141.546 76.9086 141.546C76.5709 141.546 76.4481 141.74 76.4481 141.975C76.4481 142.701 77.8502 142.343 77.8502 143.426C77.8502 144.509 77.5227 144.253 76.9189 144.253C76.315 144.253 76.2025 144.12 76.0899 144.029C76.0387 143.988 76.0285 143.947 76.0387 143.896L76.1411 143.508C76.1513 143.456 76.1615 143.456 76.2025 143.456H76.2332C76.2639 143.456 76.2843 143.456 76.3048 143.528C76.3867 143.886 76.6426 144.029 76.9598 144.029H76.9393Z" fill="white" stroke="white" stroke-width="0.171899" stroke-miterlimit="10"/>
<path d="M80.0827 145.54H79.6528C79.5607 145.54 79.5505 145.51 79.5812 145.418C79.6119 145.265 79.6221 145.163 79.6221 144.55V142.353C79.6221 142.037 79.5914 141.628 79.5505 141.495C79.53 141.434 79.5505 141.393 79.6221 141.393H79.7347C80.0315 141.393 80.1236 141.495 80.1236 142.016V142.057C80.2055 141.689 80.4921 141.332 80.9628 141.332C81.4336 141.332 81.8839 141.73 81.8839 142.762C81.8839 143.794 81.3927 144.243 80.6558 144.274C80.4306 144.274 80.2464 144.223 80.1134 144.151V144.55C80.1134 145.163 80.1339 145.265 80.1543 145.418C80.1748 145.51 80.1646 145.54 80.0827 145.54ZM80.7991 141.618C80.4511 141.618 80.1543 141.986 80.1134 142.895V143.865C80.2567 143.988 80.4511 144.039 80.6149 144.039C81.0447 144.039 81.3517 143.732 81.3517 142.793C81.3517 141.853 81.1163 141.618 80.7888 141.618H80.7991Z" fill="white" stroke="white" stroke-width="0.171899" stroke-miterlimit="10"/>
<path d="M83.5862 141.342C84.3128 141.342 84.5789 141.812 84.5789 142.496C84.5789 143.181 84.5482 142.793 84.4663 142.793H82.9619C82.9619 143.743 83.2689 144.039 83.842 144.039C84.4152 144.039 84.2616 143.988 84.4459 143.896C84.4868 143.875 84.5175 143.875 84.538 143.916L84.5584 143.967C84.5789 144.008 84.5687 144.029 84.5277 144.059C84.323 144.182 84.0365 144.264 83.7192 144.264C82.9312 144.264 82.4297 143.753 82.4297 142.813C82.4297 141.873 82.8288 141.342 83.5759 141.342H83.5862ZM83.5862 141.526C83.2382 141.526 83.0028 141.853 82.9721 142.588H83.8932C84.0774 142.588 84.0979 142.537 84.0979 142.364C84.0979 141.832 83.9137 141.536 83.5862 141.536V141.526Z" fill="white" stroke="white" stroke-width="0.171899" stroke-miterlimit="10"/>
<path d="M85.7248 144.223H85.2949C85.2131 144.223 85.1926 144.192 85.2233 144.1C85.254 143.947 85.2642 143.845 85.2642 143.232V141.066C85.2642 140.709 85.2335 140.392 85.2028 140.27C85.1824 140.208 85.2028 140.167 85.2745 140.167H85.6327C85.735 140.167 85.7657 140.208 85.7657 140.331V143.252C85.7657 143.845 85.7862 143.957 85.8067 144.1C85.8271 144.192 85.8169 144.223 85.735 144.223H85.7248Z" fill="white" stroke="white" stroke-width="0.171899" stroke-miterlimit="10"/>
<path d="M88.712 143.528C88.712 143.957 88.7938 144.131 88.7938 144.172C88.7938 144.212 88.7631 144.233 88.712 144.233H88.6403C88.3947 144.233 88.2514 144.08 88.2207 143.681C88.1695 143.814 88.0979 143.916 88.016 144.008C87.8523 144.161 87.668 144.253 87.4122 144.253C86.8698 144.253 86.4297 143.865 86.4297 142.925C86.4297 141.986 86.88 141.342 87.6271 141.342C88.3742 141.342 88.0774 141.444 88.2105 141.567V141.056C88.2105 140.698 88.1798 140.382 88.1491 140.259C88.1286 140.198 88.1491 140.157 88.2207 140.157H88.5789C88.6813 140.157 88.712 140.198 88.712 140.321V143.528ZM87.5555 143.998C87.9546 143.998 88.1798 143.651 88.2207 142.844V141.843C88.1081 141.679 87.9239 141.577 87.6885 141.577C87.187 141.577 86.9721 142.159 86.9721 142.925C86.9721 143.691 87.1461 143.998 87.5452 143.998H87.5555Z" fill="white" stroke="white" stroke-width="0.171899" stroke-miterlimit="10"/>
<path d="M90.5549 141.342C91.2815 141.342 91.5476 141.812 91.5476 142.496C91.5476 143.181 91.5169 142.793 91.435 142.793H89.9306C89.9306 143.743 90.2376 144.039 90.8107 144.039C91.3839 144.039 91.2304 143.988 91.4146 143.896C91.4555 143.875 91.4862 143.875 91.5067 143.916L91.5272 143.967C91.5476 144.008 91.5374 144.029 91.4965 144.059C91.2918 144.182 91.0052 144.263 90.6879 144.263C89.8999 144.263 89.3984 143.753 89.3984 142.813C89.3984 141.873 89.7975 141.342 90.5447 141.342H90.5549ZM90.5549 141.526C90.2069 141.526 89.9715 141.853 89.9408 142.588H90.8619C91.0461 142.588 91.0666 142.537 91.0666 142.363C91.0666 141.832 90.8824 141.536 90.5549 141.536V141.526ZM91.128 141.046H89.9715C89.9204 141.046 89.8794 141.015 89.8794 140.954V140.882C89.8794 140.821 89.9101 140.79 89.9613 140.79H91.1178C91.169 140.79 91.2099 140.811 91.2099 140.872V140.944C91.2099 141.005 91.1792 141.036 91.1178 141.036L91.128 141.046Z" fill="white" stroke="white" stroke-width="0.171899" stroke-miterlimit="10"/>
<path d="M92.9886 144.029C93.3264 144.029 93.5004 143.855 93.5004 143.579C93.5004 142.813 92.088 143.16 92.088 142.149C92.088 141.138 92.4258 141.342 92.9989 141.342C93.572 141.342 93.6846 141.505 93.7767 141.608C93.8176 141.648 93.8279 141.679 93.8074 141.74L93.705 142.067C93.6948 142.098 93.6846 142.108 93.6539 142.108H93.6232C93.5925 142.108 93.572 142.088 93.572 142.057C93.5004 141.751 93.2854 141.546 92.9477 141.546C92.61 141.546 92.4872 141.74 92.4872 141.975C92.4872 142.701 93.8893 142.343 93.8893 143.426C93.8893 144.509 93.5618 144.253 92.9579 144.253C92.3541 144.253 92.2415 144.12 92.129 144.029C92.0778 143.988 92.0676 143.947 92.0778 143.896L92.1801 143.508C92.1904 143.457 92.2006 143.457 92.2415 143.457H92.2722C92.3029 143.457 92.3234 143.457 92.3439 143.528C92.4258 143.886 92.6816 144.029 92.9989 144.029H92.9886ZM92.9784 141.036C92.9477 141.036 92.917 141.015 92.8658 140.964L92.2518 140.372C92.2108 140.341 92.2722 140.229 92.3234 140.249L92.9784 140.596L93.6232 140.249C93.6846 140.218 93.746 140.321 93.6948 140.372L93.091 140.964C93.0398 141.015 92.9989 141.036 92.9784 141.036Z" fill="white" stroke="white" stroke-width="0.171899" stroke-miterlimit="10"/>
<path d="M96.4791 144.233H96.4075C96.1926 144.233 96.0493 144.11 95.9981 143.794C95.8753 144.069 95.6297 144.253 95.1998 144.253C94.77 144.253 94.3708 144.039 94.3708 143.508C94.3708 142.976 94.8416 142.639 95.7525 142.639H95.9776V142.466C95.9776 141.802 95.7525 141.577 95.3738 141.577C94.9951 141.577 94.8621 141.751 94.7598 141.996C94.7291 142.057 94.7188 142.067 94.6881 142.067H94.6472C94.6267 142.067 94.6165 142.047 94.596 141.996L94.5551 141.7C94.5346 141.638 94.5448 141.597 94.6062 141.557C94.6881 141.495 95.0054 141.352 95.3943 141.352C96.0595 141.352 96.4791 141.72 96.4791 142.568V143.508C96.4791 143.947 96.5508 144.131 96.5508 144.172C96.5508 144.212 96.5303 144.233 96.4791 144.233ZM94.8826 143.477C94.8826 143.845 95.0566 144.018 95.3329 144.018C95.7525 144.018 95.9776 143.64 95.9879 143.252V142.833H95.773C95.1077 142.833 94.8826 143.058 94.8826 143.487V143.477Z" fill="white" stroke="white" stroke-width="0.171899" stroke-miterlimit="10"/>
<path d="M99.3552 144.223H98.9253C98.8435 144.223 98.8332 144.192 98.8537 144.1C98.8844 143.957 98.8946 143.845 98.8946 143.303V142.456C98.8946 141.904 98.7718 141.618 98.475 141.618C97.9838 141.618 97.7893 142.251 97.7893 143.007V143.232C97.7893 143.845 97.8098 143.947 97.8302 144.1C97.8507 144.192 97.8405 144.223 97.7586 144.223H97.3288C97.2367 144.223 97.2264 144.192 97.2571 144.1C97.2878 143.947 97.2981 143.845 97.2981 143.232V142.261C97.2981 141.965 97.2571 141.618 97.2264 141.506C97.206 141.444 97.2264 141.403 97.2981 141.403H97.4106C97.7074 141.403 97.7893 141.506 97.7995 142.006C97.9326 141.638 98.1987 141.352 98.649 141.352C99.0993 141.352 99.4063 141.669 99.4063 142.415V143.314C99.4063 143.855 99.4166 143.967 99.4473 144.11C99.4678 144.202 99.4575 144.233 99.3756 144.233L99.3552 144.223Z" fill="white" stroke="white" stroke-width="0.171899" stroke-miterlimit="10"/>
<path d="M102.12 144.233H102.048C101.833 144.233 101.69 144.11 101.639 143.794C101.516 144.069 101.271 144.253 100.841 144.253C100.411 144.253 100.012 144.039 100.012 143.508C100.012 142.976 100.483 142.639 101.393 142.639H101.619V142.466C101.619 141.802 101.393 141.577 101.015 141.577C100.636 141.577 100.503 141.751 100.401 141.996C100.37 142.057 100.36 142.067 100.329 142.067H100.288C100.268 142.067 100.257 142.047 100.237 141.996L100.196 141.7C100.175 141.638 100.186 141.597 100.247 141.557C100.329 141.495 100.646 141.352 101.025 141.352C101.69 141.352 102.11 141.72 102.11 142.568V143.508C102.11 143.947 102.181 144.131 102.181 144.172C102.181 144.212 102.161 144.233 102.11 144.233H102.12ZM100.513 143.477C100.513 143.845 100.687 144.018 100.964 144.018C101.383 144.018 101.608 143.64 101.619 143.252V142.833H101.404C100.738 142.833 100.513 143.058 100.513 143.487V143.477Z" fill="white" stroke="white" stroke-width="0.171899" stroke-miterlimit="10"/>
<path d="M33.3327 130.126V131.423L32.2376 130.606C32.1148 130.514 31.9817 130.453 31.8589 130.422C31.7566 130.402 31.6235 130.392 31.4598 130.392C30.5796 130.392 29.9144 130.739 29.4743 131.444C29.1059 132.026 28.9216 132.792 28.9216 133.722C28.9216 134.651 29.1366 135.642 29.5766 136.194C30.0372 136.786 30.6717 137.072 31.4905 137.042H31.7873C31.7873 137.031 32.3092 136.991 32.3092 136.991V135.479C32.3092 135.305 32.2785 135.152 32.2069 135.019L31.8896 134.376H33.7113L33.4248 135.009C33.3429 135.172 33.302 135.356 33.302 135.561V137.256C32.5958 137.42 31.8794 137.512 31.1425 137.512C30.0986 137.512 29.2696 137.195 28.676 136.562C28.0824 135.928 27.7856 135.029 27.7856 133.885C27.7856 132.741 28.1234 131.658 28.7886 130.964C29.4641 130.269 30.3954 129.922 31.6031 129.922C32.8107 129.922 32.2888 129.932 32.4934 129.963C32.5753 129.973 32.6777 129.983 32.8312 130.004C32.9642 130.024 33.1382 130.065 33.3429 130.126H33.3327Z" fill="white" stroke="white" stroke-width="0.171899"/>
<path d="M39.1863 134.518H35.7373C35.7373 135.305 35.9216 135.887 36.3002 136.255C36.6789 136.623 37.1906 136.817 37.8456 136.817C38.5006 136.817 37.9787 136.817 38.0401 136.817L38.603 136.786L39.217 136.684C38.9305 136.939 38.603 137.133 38.2448 137.266C37.8661 137.409 37.4874 137.47 37.0883 137.47C36.3514 137.47 35.7578 137.215 35.3382 136.715C34.9391 136.245 34.7344 135.622 34.7344 134.876C34.7344 134.13 34.7958 134.171 34.9084 133.824C35.0209 133.476 35.1847 133.18 35.3894 132.935C35.5941 132.69 35.8602 132.496 36.1774 132.343C36.4947 132.189 36.812 132.108 37.1292 132.108C37.7842 132.108 38.2755 132.312 38.6234 132.721C39.0021 133.18 39.1863 133.783 39.1863 134.539V134.518ZM38.0503 133.936C38.0503 133.476 37.9582 133.119 37.7842 132.864C37.6205 132.629 37.3646 132.506 37.0269 132.506C36.6891 132.506 36.3412 132.649 36.1262 132.945C35.8806 133.272 35.7578 133.691 35.7578 134.212L38.0605 133.936H38.0503Z" fill="white" stroke="white" stroke-width="0.171899"/>
<path d="M42.6579 132.516C42.1462 132.516 41.7777 132.761 41.5526 133.252C41.3786 133.62 41.2865 134.079 41.2865 134.651C41.2865 135.223 41.3786 135.795 41.5628 136.224C41.8084 136.817 42.1973 137.113 42.7398 137.113C43.2822 137.113 43.6199 136.868 43.8451 136.378C44.0191 136.01 44.1112 135.55 44.1112 134.978C44.1112 134.406 44.0191 133.854 43.8348 133.415C43.579 132.823 43.1901 132.527 42.6681 132.527L42.6579 132.516ZM40.1914 134.804C40.1914 134.049 40.4268 133.405 40.8873 132.894C41.3684 132.363 41.9824 132.087 42.7295 132.087C43.4766 132.087 44.0805 132.363 44.541 132.904C44.9709 133.415 45.196 134.059 45.196 134.815C45.196 135.571 44.9709 136.224 44.5103 136.725C44.0395 137.246 43.4255 137.511 42.6579 137.511C41.8903 137.511 41.3479 137.256 40.8873 136.745C40.4268 136.235 40.2016 135.581 40.2016 134.794L40.1914 134.804Z" fill="white" stroke="white" stroke-width="0.171899"/>
<path d="M52.5099 132.271V133.466C52.3564 133.344 52.121 133.18 51.8242 132.966C51.6093 132.812 51.466 132.721 51.3944 132.68C51.1999 132.567 51.0362 132.506 50.9236 132.506C50.7394 132.506 50.5654 132.578 50.4119 132.721C50.2584 132.864 50.1867 133.037 50.1867 133.252C50.1867 133.466 50.2481 133.558 50.3607 133.711C50.5347 133.875 50.7189 134.008 50.9338 134.12L51.6912 134.518C52.0289 134.692 52.2745 134.866 52.4178 135.029C52.6123 135.244 52.7044 135.519 52.7044 135.846C52.7044 136.357 52.5304 136.755 52.1927 137.052C51.8549 137.348 51.3739 137.491 50.7496 137.491C50.1253 137.491 49.8183 137.409 49.2656 137.236V135.979C49.3373 136.03 49.5727 136.224 49.9923 136.541C50.1253 136.643 50.2788 136.755 50.4426 136.878C50.6473 137.001 50.8212 137.072 50.9543 137.072C51.1795 137.072 51.3739 136.99 51.5377 136.827C51.7014 136.664 51.7833 136.459 51.7833 136.234C51.7833 136.01 51.7321 135.887 51.6298 135.754C51.5786 135.683 51.507 135.622 51.4251 135.55C51.3227 135.489 51.2102 135.428 51.0771 135.356L50.4937 135.07C50.1151 134.876 49.8285 134.661 49.6238 134.426C49.4294 134.181 49.3373 133.905 49.3373 133.609C49.3373 133.129 49.5215 132.741 49.8899 132.475C50.2174 132.23 50.637 132.108 51.1385 132.108H51.3841C51.4865 132.108 51.6195 132.118 51.773 132.149L52.5099 132.281V132.271Z" fill="white" stroke="white" stroke-width="0.171899"/>
<path d="M55.1629 132.046V135.734C55.1629 136.377 55.2959 136.909 55.5723 137.348H53.812C53.8529 137.266 53.9245 137.144 54.0064 136.98C54.0473 136.888 54.0883 136.776 54.1292 136.633C54.2009 136.388 54.2316 136.081 54.2316 135.734V133.599C54.2316 133.385 54.2009 133.18 54.1292 132.996C54.0678 132.812 53.945 132.598 53.7812 132.353L55.1629 132.057V132.046ZM54.6614 129.544C54.8354 129.544 54.9787 129.605 55.0912 129.717C55.2038 129.83 55.2652 129.973 55.2652 130.146C55.2652 130.32 55.2141 130.494 55.1015 130.596C55.0094 130.698 54.8661 130.759 54.6614 130.759C54.4567 130.759 54.3339 130.708 54.2316 130.596C54.1292 130.483 54.078 130.34 54.078 130.157C54.078 129.973 54.1292 129.85 54.2418 129.717C54.3646 129.605 54.5079 129.544 54.6614 129.544Z" fill="white" stroke="white" stroke-width="0.171899"/>
<path d="M60.2909 132.792L59.8713 132.659L59.421 132.618C58.8786 132.618 58.459 132.802 58.1417 133.18C57.8347 133.558 57.6812 134.079 57.6812 134.753C57.6812 135.428 57.8449 135.938 58.1827 136.286C58.5409 136.664 59.0321 136.837 59.6359 136.807H59.902C59.902 136.796 60.2705 136.735 60.2705 136.735V132.792H60.2909ZM61.2223 129.401V135.571C61.2223 136.255 61.3655 136.807 61.6623 137.205L60.2909 137.501V136.837C59.9634 137.062 59.6769 137.236 59.421 137.327C59.1549 137.43 58.8991 137.491 58.6739 137.491C58.111 137.491 57.6402 137.246 57.2513 136.766C56.8624 136.286 56.668 135.683 56.668 134.968C56.668 134.253 56.8829 133.609 57.3127 133.027C57.7835 132.404 58.3669 132.087 59.0628 132.087C59.7587 132.087 59.9225 132.21 60.2909 132.445V131.25C60.2909 130.984 60.2602 130.749 60.1886 130.555C60.1272 130.361 59.9839 130.085 59.7588 129.728L61.212 129.391L61.2223 129.401Z" fill="white" stroke="white" stroke-width="0.171899"/>
<path d="M67.1999 134.518H63.7509C63.7509 135.305 63.9352 135.887 64.3138 136.255C64.6925 136.623 65.2042 136.817 65.8695 136.817C66.5347 136.817 66.0025 136.817 66.0639 136.817L66.6268 136.786L67.2409 136.684C66.9543 136.939 66.6268 137.133 66.2686 137.266C65.8899 137.409 65.5113 137.47 65.1121 137.47C64.3752 137.47 63.7816 137.215 63.362 136.715C62.9629 136.245 62.7582 135.622 62.7582 134.876C62.7582 134.13 62.8196 134.171 62.9322 133.824C63.0448 133.476 63.2085 133.18 63.4132 132.935C63.6179 132.69 63.884 132.496 64.2013 132.343C64.5185 132.189 64.8358 132.108 65.1531 132.108C65.8081 132.108 66.2993 132.312 66.6473 132.721C67.0259 133.18 67.2102 133.783 67.2102 134.539L67.1999 134.518ZM66.0639 133.936C66.0639 133.476 65.9718 133.119 65.7978 132.864C65.6341 132.629 65.3782 132.506 65.0405 132.506C64.7027 132.506 64.3548 132.649 64.1398 132.945C63.8942 133.272 63.7714 133.691 63.7714 134.212L66.0741 133.936H66.0639Z" fill="white" stroke="white" stroke-width="0.171899"/>
<path d="M69.5941 132.047V132.659L70.2286 132.363C70.4333 132.271 70.5868 132.22 70.6891 132.2C70.9041 132.128 71.1292 132.087 71.3544 132.087C71.8047 132.087 72.1527 132.271 72.3983 132.649C72.6337 132.537 73.0021 132.394 73.4934 132.21C73.7799 132.128 74.0255 132.087 74.2405 132.087C74.7931 132.087 75.182 132.271 75.397 132.649C75.5709 132.945 75.663 133.385 75.663 133.977V135.795C75.663 136.388 75.7961 136.909 76.0724 137.338H74.3223C74.4452 137.134 74.5475 136.899 74.6191 136.633C74.6805 136.408 74.7215 136.102 74.7215 135.724V134.294C74.7215 133.691 74.6089 133.283 74.3838 133.068C74.1381 132.833 73.7288 132.721 73.1352 132.741H72.8179C72.7258 132.751 72.603 132.762 72.4495 132.772C72.5313 132.894 72.5723 133.037 72.5825 133.191L72.6234 133.977V135.724C72.6234 136.357 72.7667 136.899 73.0431 137.338H71.2827C71.5591 136.878 71.6921 136.337 71.6921 135.724V134.294C71.6921 133.732 71.5795 133.334 71.3646 133.099C71.1292 132.843 70.7505 132.731 70.2184 132.751H69.942C69.942 132.762 69.5941 132.782 69.5941 132.782V135.734C69.5941 136.367 69.7373 136.909 70.0137 137.348H68.2534C68.5297 136.888 68.6627 136.347 68.6627 135.734V133.599C68.6627 133.191 68.5195 132.782 68.2227 132.353L69.5941 132.057V132.047Z" fill="white" stroke="white" stroke-width="0.171899"/>
<path d="M79.4821 132.516C78.9704 132.516 78.602 132.761 78.3768 133.252C78.2028 133.62 78.1107 134.079 78.1107 134.651C78.1107 135.223 78.2028 135.795 78.387 136.224C78.6327 136.817 79.0216 137.113 79.564 137.113C80.1064 137.113 80.4441 136.868 80.6693 136.378C80.8433 136.01 80.9354 135.55 80.9354 134.978C80.9354 134.406 80.8433 133.854 80.6591 133.415C80.4032 132.823 80.0143 132.527 79.4923 132.527L79.4821 132.516ZM77.0156 134.804C77.0156 134.049 77.251 133.405 77.7116 132.894C78.1926 132.363 78.8066 132.087 79.5537 132.087C80.3009 132.087 80.9047 132.363 81.3652 132.904C81.7951 133.415 82.0202 134.059 82.0202 134.815C82.0202 135.571 81.7951 136.224 81.3345 136.725C80.8638 137.246 80.2497 137.511 79.4821 137.511C78.7145 137.511 78.1721 137.256 77.7116 136.745C77.251 136.235 77.0259 135.581 77.0259 134.794L77.0156 134.804Z" fill="white" stroke="white" stroke-width="0.171899"/>
<path d="M84.3387 132.046V135.131C84.3387 135.806 84.441 136.235 84.6355 136.439C84.8504 136.653 85.2188 136.756 85.7408 136.735H86.0888C86.0888 136.725 86.5698 136.684 86.5698 136.684V133.579C86.5698 133.364 86.5391 133.16 86.4674 132.976C86.406 132.792 86.2832 132.578 86.1195 132.332L87.5113 132.036V135.918C87.5113 136.112 87.5523 136.316 87.6239 136.521C87.7058 136.725 87.8081 136.939 87.9616 137.144L86.5698 137.46V136.776C86.1502 137.011 85.8022 137.174 85.5259 137.266C85.2291 137.368 84.9527 137.42 84.7173 137.42C84.2466 137.42 83.9088 137.287 83.7041 137.021C83.4995 136.756 83.4073 136.306 83.4073 135.683V133.589C83.4073 133.374 83.3766 133.17 83.305 132.986C83.2436 132.802 83.1208 132.588 82.957 132.343L84.3387 132.046Z" fill="white" stroke="white" stroke-width="0.171899"/>
<path d="M90.3573 132.047V132.659C90.562 132.567 90.7973 132.476 91.0634 132.373C91.2374 132.312 91.4114 132.251 91.5649 132.2C91.8106 132.128 92.0459 132.087 92.2506 132.087C93.1103 132.087 93.5299 132.721 93.5299 133.977V135.724C93.5299 136.357 93.6732 136.899 93.9495 137.338H92.1892C92.4655 136.868 92.6088 136.327 92.6088 135.724V134.294C92.6088 133.712 92.4963 133.313 92.2711 133.088C92.0255 132.843 91.6161 132.731 91.043 132.751H90.7052C90.6234 132.762 90.5108 132.772 90.3675 132.782V135.795C90.3675 136.388 90.5005 136.909 90.7769 137.338H89.0268C89.1496 137.144 89.252 136.909 89.3338 136.633C89.3952 136.408 89.4362 136.102 89.4362 135.724V133.589C89.4362 133.17 89.2929 132.751 88.9961 132.343L90.3777 132.047H90.3573Z" fill="white" stroke="white" stroke-width="0.171899"/>
<path d="M96.286 130.678V132.159H98.0054V132.659H96.286V135.703C96.286 136.163 96.3679 136.469 96.5214 136.623C96.7159 136.766 97.0331 136.827 97.4834 136.817H97.8416C97.8416 136.807 98.2612 136.755 98.2612 136.755C97.9849 136.97 97.6984 137.154 97.3913 137.297C97.0331 137.419 96.7466 137.481 96.5214 137.481C96.0813 137.481 95.7641 137.368 95.5901 137.133C95.4161 136.919 95.3342 136.48 95.3342 135.846V132.67H94.4336C95.2114 132.016 95.8255 131.362 96.2758 130.688L96.286 130.678Z" fill="white" stroke="white" stroke-width="0.171899"/>
<path d="M105.283 132.792L104.864 132.659L104.413 132.618C103.871 132.618 103.451 132.802 103.134 133.18C102.827 133.558 102.673 134.079 102.673 134.753C102.673 135.428 102.837 135.938 103.175 136.286C103.533 136.664 104.024 136.837 104.628 136.807H104.894C104.894 136.796 105.263 136.735 105.263 136.735V132.792H105.283ZM106.214 129.401V135.571C106.214 136.255 106.358 136.807 106.655 137.205L105.283 137.501V136.837C104.956 137.062 104.669 137.236 104.413 137.327C104.147 137.43 103.891 137.491 103.666 137.491C103.103 137.491 102.632 137.246 102.244 136.766C101.855 136.286 101.66 135.683 101.66 134.968C101.66 134.253 101.875 133.609 102.305 133.027C102.776 132.404 103.359 132.087 104.055 132.087C104.751 132.087 104.915 132.21 105.283 132.445V131.25C105.283 130.984 105.252 130.749 105.181 130.555C105.119 130.361 104.976 130.085 104.751 129.728L106.204 129.391L106.214 129.401Z" fill="white" stroke="white" stroke-width="0.171899"/>
<path d="M109.128 132.046V135.734C109.128 136.377 109.261 136.909 109.537 137.348H107.777C107.818 137.266 107.889 137.144 107.971 136.98C108.012 136.888 108.053 136.776 108.094 136.633C108.166 136.388 108.196 136.081 108.196 135.734V133.599C108.196 133.385 108.166 133.18 108.094 132.996C108.033 132.812 107.91 132.598 107.746 132.353L109.128 132.057V132.046ZM108.626 129.544C108.8 129.544 108.944 129.605 109.056 129.717C109.169 129.83 109.23 129.973 109.23 130.146C109.23 130.32 109.179 130.494 109.066 130.596C108.974 130.698 108.831 130.759 108.626 130.759C108.422 130.759 108.299 130.708 108.196 130.596C108.094 130.483 108.043 130.34 108.043 130.157C108.043 129.973 108.094 129.85 108.207 129.717C108.329 129.605 108.473 129.544 108.626 129.544Z" fill="white" stroke="white" stroke-width="0.171899"/>
<path d="M109.928 132.159H111.934L111.903 132.21C111.729 132.506 111.637 132.7 111.637 132.782L111.658 132.976L111.719 133.221L112.825 136.5L113.879 132.925L113.899 132.711C113.899 132.639 113.879 132.567 113.838 132.476L113.623 132.149H115.189C114.861 132.445 114.575 132.905 114.329 133.548L112.865 137.389H112.21L110.86 133.701C110.645 133.048 110.327 132.527 109.918 132.149L109.928 132.159Z" fill="white" stroke="white" stroke-width="0.171899"/>
<path d="M117.018 132.046V135.734C117.018 136.377 117.151 136.909 117.428 137.348H115.667C115.708 137.266 115.78 137.144 115.862 136.98C115.903 136.888 115.944 136.776 115.985 136.633C116.056 136.388 116.087 136.081 116.087 135.734V133.599C116.087 133.385 116.056 133.18 115.985 132.996C115.923 132.812 115.8 132.598 115.637 132.353L117.018 132.057V132.046ZM116.517 129.544C116.691 129.544 116.834 129.605 116.947 129.717C117.059 129.83 117.121 129.973 117.121 130.146C117.121 130.32 117.07 130.494 116.957 130.596C116.875 130.698 116.722 130.759 116.517 130.759C116.312 130.759 116.189 130.708 116.087 130.596C115.985 130.483 115.934 130.34 115.934 130.157C115.934 129.973 115.985 129.85 116.097 129.717C116.22 129.605 116.363 129.544 116.517 129.544Z" fill="white" stroke="white" stroke-width="0.171899"/>
<path d="M119.897 132.046V132.659C120.101 132.567 120.337 132.475 120.603 132.373C120.777 132.312 120.951 132.251 121.104 132.2C121.35 132.128 121.585 132.087 121.79 132.087C122.65 132.087 123.069 132.721 123.069 133.977V135.724C123.069 136.357 123.202 136.898 123.489 137.338H121.729C122.005 136.868 122.148 136.326 122.148 135.724V134.294C122.148 133.711 122.036 133.313 121.811 133.088C121.565 132.843 121.156 132.731 120.582 132.751H120.245C120.163 132.761 120.05 132.772 119.907 132.782V135.795C119.907 136.388 120.04 136.909 120.316 137.338H118.566C118.689 137.144 118.791 136.909 118.873 136.633C118.935 136.408 118.976 136.102 118.976 135.724V133.589C118.976 133.17 118.832 132.751 118.536 132.343L119.917 132.046H119.897Z" fill="white" stroke="white" stroke-width="0.171899"/>
<path d="M125.533 137.277C125.452 137.379 125.39 137.46 125.359 137.511C125.329 137.563 125.288 137.644 125.247 137.736C125.175 137.9 125.144 138.043 125.144 138.165C125.144 138.502 125.308 138.758 125.646 138.931C125.912 139.074 126.229 139.136 126.598 139.136C126.966 139.136 127.386 139.044 127.724 138.87C128.143 138.645 128.348 138.349 128.348 137.981C128.348 137.614 128.246 137.522 128.031 137.43C127.898 137.368 127.662 137.338 127.335 137.338H125.851C125.851 137.328 125.554 137.266 125.554 137.266L125.533 137.277ZM126.475 132.476C125.861 132.476 125.554 132.864 125.554 133.63C125.554 134.396 125.636 134.304 125.8 134.58C125.994 134.907 126.26 135.07 126.588 135.07C126.915 135.07 127.089 134.948 127.263 134.713C127.406 134.498 127.478 134.243 127.478 133.957C127.478 133.671 127.406 133.262 127.263 132.986C127.079 132.649 126.823 132.476 126.475 132.476ZM129.33 132.087V132.894L127.826 132.547C128.102 132.772 128.286 133.068 128.368 133.426C128.399 133.538 128.409 133.65 128.409 133.773C128.409 134.284 128.225 134.692 127.867 134.999C127.529 135.295 127.089 135.438 126.577 135.438H126.342L126.055 135.397L125.953 135.663L125.922 135.867C125.922 136.061 125.984 136.194 126.096 136.286C126.209 136.367 126.424 136.408 126.741 136.408H127.713C128.164 136.408 128.481 136.48 128.686 136.613C128.921 136.776 129.044 137.072 129.044 137.491C129.044 137.91 128.982 138.032 128.849 138.308C128.604 138.829 128.123 139.217 127.406 139.463C127.058 139.585 126.7 139.646 126.342 139.646C125.984 139.646 125.431 139.565 125.011 139.391C124.469 139.166 124.203 138.86 124.203 138.451C124.203 138.043 124.275 138.084 124.418 137.93C124.571 137.777 124.889 137.532 125.39 137.195C125.073 137.072 124.919 136.858 124.919 136.551C124.919 136.245 125.267 135.826 125.953 135.387C125.523 135.315 125.196 135.142 124.95 134.876C124.694 134.6 124.571 134.253 124.571 133.824C124.571 133.395 124.766 132.864 125.144 132.537C125.503 132.23 125.963 132.087 126.506 132.087C127.048 132.087 127.294 132.21 127.662 132.445L129.31 132.087H129.33Z" fill="white" stroke="white" stroke-width="0.171899"/>
<path d="M56.9014 140.372C56.9526 140.372 56.973 140.402 56.973 140.443C56.973 140.484 56.9628 140.545 56.9321 140.586L54.9876 143.998H56.0213C56.5944 143.998 56.7479 143.886 56.9116 143.64C56.9526 143.579 56.9628 143.569 57.014 143.569H57.0345C57.0856 143.569 57.0959 143.589 57.0754 143.671L56.9833 144.059C56.9526 144.182 56.9219 144.192 56.7684 144.192H54.4452C54.394 144.192 54.3633 144.161 54.3633 144.1C54.3633 144.039 54.3837 144.008 54.4042 143.978L56.3897 140.556H55.5095C54.9057 140.556 54.7727 140.668 54.6396 140.903C54.6089 140.954 54.5987 140.974 54.5475 140.974H54.527C54.4759 140.974 54.4656 140.954 54.4759 140.872L54.5373 140.494C54.5577 140.372 54.5884 140.361 54.742 140.361H56.9014V140.372Z" fill="white" stroke="white" stroke-width="0.171899"/>
<path d="M58.6526 141.342C59.3792 141.342 59.6453 141.812 59.6453 142.496C59.6453 143.181 59.6146 142.793 59.5327 142.793H58.0283C58.0283 143.743 58.3353 144.039 58.9084 144.039C59.4816 144.039 59.328 143.988 59.5123 143.896C59.5532 143.875 59.5839 143.875 59.6044 143.916L59.6248 143.967C59.6453 144.008 59.6351 144.029 59.5941 144.059C59.3895 144.182 59.1029 144.264 58.7856 144.264C57.9976 144.264 57.4961 143.753 57.4961 142.813C57.4961 141.873 57.8952 141.342 58.6423 141.342H58.6526ZM58.6526 141.526C58.3046 141.526 58.0692 141.853 58.0385 142.588H58.9596C59.1438 142.588 59.1643 142.537 59.1643 142.364C59.1643 141.832 58.9801 141.536 58.6526 141.536V141.526Z" fill="white" stroke="white" stroke-width="0.171899"/>
<path d="M63.8513 144.223H63.4214C63.3293 144.223 63.3293 144.192 63.3498 144.1C63.3805 143.947 63.3907 143.845 63.3907 143.232V142.394C63.3907 141.884 63.2884 141.618 62.9916 141.618C62.6948 141.618 62.3775 142.027 62.3571 142.731V143.324C62.3571 143.855 62.3775 143.967 62.398 144.11C62.4185 144.202 62.4082 144.233 62.3264 144.233H61.8965C61.8044 144.233 61.8044 144.202 61.8249 144.11C61.8556 143.988 61.8658 143.896 61.8658 143.528V142.333C61.8556 141.894 61.7532 141.618 61.4667 141.618C61.1801 141.618 60.8321 142.047 60.8321 142.782V143.232C60.8321 143.845 60.8526 143.947 60.8731 144.1C60.8935 144.192 60.8833 144.223 60.8014 144.223H60.3716C60.2795 144.223 60.2692 144.192 60.2999 144.1C60.3204 143.967 60.3409 143.875 60.3409 143.477V142.292C60.3409 141.986 60.2999 141.628 60.2692 141.495C60.2488 141.434 60.2692 141.393 60.3409 141.393H60.4535C60.74 141.393 60.8321 141.485 60.8424 141.975C60.9856 141.546 61.2927 141.332 61.6406 141.332C61.9886 141.332 62.2752 141.546 62.3468 142.027C62.4696 141.567 62.7767 141.332 63.1553 141.332C63.534 141.332 63.8922 141.638 63.8922 142.374V143.293C63.8922 143.824 63.9127 143.937 63.9434 144.08C63.9639 144.172 63.9434 144.202 63.8717 144.202L63.8513 144.223Z" fill="white" stroke="white" stroke-width="0.171899"/>
<path d="M66.2688 141.393H66.7294C66.8113 141.393 66.8215 141.414 66.8113 141.495C66.7806 141.659 66.7806 141.955 66.7806 142.292V143.508C66.7806 143.947 66.8624 144.131 66.8624 144.172C66.8624 144.212 66.842 144.233 66.7806 144.233H66.7089C66.4633 144.233 66.3302 144.08 66.2893 143.702C66.1563 144.029 65.8902 144.253 65.5115 144.253C65.1328 144.253 64.6927 143.977 64.6927 143.324V142.353C64.6927 142.006 64.6518 141.628 64.6109 141.495C64.5904 141.434 64.6006 141.393 64.6723 141.393H65.1328C65.2045 141.393 65.2249 141.414 65.2045 141.495C65.1738 141.659 65.1738 141.955 65.1738 142.292V143.273C65.1738 143.712 65.2966 143.998 65.6036 143.998C65.9106 143.998 65.839 143.967 65.9413 143.875C66.1358 143.702 66.2791 143.354 66.2791 142.629V142.292C66.2791 141.955 66.2381 141.618 66.1972 141.495C66.1767 141.434 66.187 141.393 66.2586 141.393H66.2688ZM66.2995 141.046H65.1431C65.0919 141.046 65.051 141.015 65.051 140.954V140.882C65.051 140.821 65.0817 140.79 65.1328 140.79H66.2893C66.3405 140.79 66.3814 140.811 66.3814 140.872V140.944C66.3814 141.005 66.3507 141.036 66.2893 141.036L66.2995 141.046Z" fill="white" stroke="white" stroke-width="0.171899"/>
<path d="M69.7354 143.528C69.7354 143.957 69.8173 144.131 69.8173 144.172C69.8173 144.213 69.7866 144.233 69.7354 144.233H69.6638C69.4181 144.233 69.2748 144.08 69.2441 143.681C69.193 143.814 69.1213 143.916 69.0395 144.008C68.8757 144.161 68.6915 144.253 68.4356 144.253C67.8932 144.253 67.4531 143.865 67.4531 142.925C67.4531 141.986 67.9034 141.342 68.6505 141.342C69.3977 141.342 69.1009 141.444 69.2339 141.567V141.056C69.2339 140.699 69.2032 140.382 69.1725 140.259C69.152 140.198 69.1725 140.157 69.2441 140.157H69.6023C69.7047 140.157 69.7354 140.198 69.7354 140.321V143.528ZM68.5789 143.998C68.978 143.998 69.2032 143.651 69.2441 142.844V141.843C69.1316 141.679 68.9473 141.577 68.712 141.577C68.2105 141.577 67.9955 142.159 67.9955 142.925C67.9955 143.692 68.1695 143.998 68.5687 143.998H68.5789Z" fill="white" stroke="white" stroke-width="0.171899"/>
<path d="M71.5784 141.342C72.305 141.342 72.5711 141.812 72.5711 142.496C72.5711 143.181 72.5404 142.793 72.4585 142.793H70.9541C70.9541 143.743 71.2611 144.039 71.8342 144.039C72.4073 144.039 72.2538 143.988 72.438 143.896C72.479 143.875 72.5097 143.875 72.5302 143.916L72.5506 143.967C72.5711 144.008 72.5609 144.029 72.5199 144.059C72.3152 144.182 72.0287 144.264 71.7114 144.264C70.9234 144.264 70.4219 143.753 70.4219 142.813C70.4219 141.873 70.821 141.342 71.5681 141.342H71.5784ZM71.5784 141.526C71.2304 141.526 70.995 141.853 70.9643 142.588H71.8854C72.0696 142.588 72.0901 142.537 72.0901 142.364C72.0901 141.832 71.9059 141.536 71.5784 141.536V141.526Z" fill="white" stroke="white" stroke-width="0.171899"/>
<path d="M75.3238 144.223H74.8939C74.8121 144.223 74.8018 144.192 74.8223 144.1C74.853 143.957 74.8632 143.845 74.8632 143.303V142.455C74.8632 141.904 74.7404 141.618 74.4436 141.618C73.9524 141.618 73.7579 142.251 73.7579 143.007V143.232C73.7579 143.845 73.7784 143.947 73.7988 144.1C73.8193 144.192 73.8091 144.223 73.7272 144.223H73.2974C73.2053 144.223 73.195 144.192 73.2257 144.1C73.2564 143.947 73.2667 143.845 73.2667 143.232V142.261C73.2667 141.965 73.2257 141.618 73.195 141.505C73.1746 141.444 73.195 141.403 73.2667 141.403H73.3792C73.676 141.403 73.7579 141.505 73.7681 142.006C73.9012 141.638 74.1673 141.352 74.6176 141.352C75.0679 141.352 75.3749 141.669 75.3749 142.415V143.313C75.3749 143.855 75.3852 143.967 75.4159 144.11C75.4363 144.202 75.4261 144.233 75.3442 144.233L75.3238 144.223Z" fill="white" stroke="white" stroke-width="0.171899"/>
<path d="M76.9393 144.029C77.2771 144.029 77.4511 143.855 77.4511 143.579C77.4511 142.813 76.0387 143.16 76.0387 142.149C76.0387 141.138 76.3765 141.342 76.9496 141.342C77.5227 141.342 77.6353 141.506 77.7376 141.608C77.7786 141.649 77.7888 141.679 77.7683 141.74L77.666 142.067C77.6557 142.098 77.6455 142.108 77.6148 142.108H77.5841C77.5534 142.108 77.5329 142.088 77.5329 142.057C77.4613 141.751 77.2464 141.546 76.9086 141.546C76.5709 141.546 76.4481 141.74 76.4481 141.975C76.4481 142.701 77.8502 142.343 77.8502 143.426C77.8502 144.509 77.5227 144.253 76.9189 144.253C76.315 144.253 76.2025 144.121 76.0899 144.029C76.0387 143.988 76.0285 143.947 76.0387 143.896L76.1411 143.508C76.1513 143.457 76.1615 143.457 76.2025 143.457H76.2332C76.2639 143.457 76.2843 143.457 76.3048 143.528C76.3867 143.886 76.6426 144.029 76.9598 144.029H76.9393Z" fill="white" stroke="white" stroke-width="0.171899"/>
<path d="M80.0827 145.54H79.6528C79.5607 145.54 79.5505 145.51 79.5812 145.418C79.6119 145.265 79.6221 145.163 79.6221 144.55V142.353C79.6221 142.037 79.5914 141.628 79.5505 141.495C79.53 141.434 79.5505 141.393 79.6221 141.393H79.7347C80.0315 141.393 80.1236 141.495 80.1236 142.016V142.057C80.2055 141.689 80.4921 141.332 80.9628 141.332C81.4336 141.332 81.8839 141.73 81.8839 142.762C81.8839 143.794 81.3927 144.243 80.6558 144.274C80.4306 144.274 80.2464 144.223 80.1134 144.151V144.55C80.1134 145.163 80.1339 145.265 80.1543 145.418C80.1748 145.51 80.1646 145.54 80.0827 145.54ZM80.7991 141.618C80.4511 141.618 80.1543 141.986 80.1134 142.895V143.865C80.2567 143.988 80.4511 144.039 80.6149 144.039C81.0447 144.039 81.3517 143.732 81.3517 142.793C81.3517 141.853 81.1163 141.618 80.7888 141.618H80.7991Z" fill="white" stroke="white" stroke-width="0.171899"/>
<path d="M83.5862 141.342C84.3128 141.342 84.5789 141.812 84.5789 142.496C84.5789 143.181 84.5482 142.793 84.4663 142.793H82.9619C82.9619 143.743 83.2689 144.039 83.842 144.039C84.4152 144.039 84.2616 143.988 84.4459 143.896C84.4868 143.875 84.5175 143.875 84.538 143.916L84.5584 143.967C84.5789 144.008 84.5687 144.029 84.5277 144.059C84.323 144.182 84.0365 144.264 83.7192 144.264C82.9312 144.264 82.4297 143.753 82.4297 142.813C82.4297 141.873 82.8288 141.342 83.5759 141.342H83.5862ZM83.5862 141.526C83.2382 141.526 83.0028 141.853 82.9721 142.588H83.8932C84.0774 142.588 84.0979 142.537 84.0979 142.364C84.0979 141.832 83.9137 141.536 83.5862 141.536V141.526Z" fill="white" stroke="white" stroke-width="0.171899"/>
<path d="M85.7248 144.223H85.2949C85.2131 144.223 85.1926 144.192 85.2233 144.1C85.254 143.947 85.2642 143.845 85.2642 143.232V141.066C85.2642 140.709 85.2335 140.392 85.2028 140.27C85.1824 140.208 85.2028 140.167 85.2745 140.167H85.6327C85.735 140.167 85.7657 140.208 85.7657 140.331V143.252C85.7657 143.845 85.7862 143.957 85.8067 144.1C85.8271 144.192 85.8169 144.223 85.735 144.223H85.7248Z" fill="white" stroke="white" stroke-width="0.171899"/>
<path d="M88.712 143.528C88.712 143.957 88.7938 144.131 88.7938 144.172C88.7938 144.212 88.7631 144.233 88.712 144.233H88.6403C88.3947 144.233 88.2514 144.08 88.2207 143.681C88.1695 143.814 88.0979 143.916 88.016 144.008C87.8523 144.161 87.668 144.253 87.4122 144.253C86.8698 144.253 86.4297 143.865 86.4297 142.925C86.4297 141.986 86.88 141.342 87.6271 141.342C88.3742 141.342 88.0774 141.444 88.2105 141.567V141.056C88.2105 140.698 88.1798 140.382 88.1491 140.259C88.1286 140.198 88.1491 140.157 88.2207 140.157H88.5789C88.6813 140.157 88.712 140.198 88.712 140.321V143.528ZM87.5555 143.998C87.9546 143.998 88.1798 143.651 88.2207 142.844V141.843C88.1081 141.679 87.9239 141.577 87.6885 141.577C87.187 141.577 86.9721 142.159 86.9721 142.925C86.9721 143.691 87.1461 143.998 87.5452 143.998H87.5555Z" fill="white" stroke="white" stroke-width="0.171899"/>
<path d="M90.5551 141.342C91.2817 141.342 91.5478 141.812 91.5478 142.496C91.5478 143.181 91.5171 142.793 91.4352 142.793H89.9308C89.9308 143.743 90.2378 144.039 90.8109 144.039C91.3841 144.039 91.2306 143.988 91.4148 143.896C91.4557 143.875 91.4864 143.875 91.5069 143.916L91.5274 143.967C91.5478 144.008 91.5376 144.029 91.4967 144.059C91.292 144.182 91.0054 144.263 90.6881 144.263C89.9001 144.263 89.3986 143.753 89.3986 142.813C89.3986 141.873 89.7977 141.342 90.5449 141.342H90.5551ZM90.5551 141.526C90.2071 141.526 89.9717 141.853 89.941 142.588H90.8621C91.0463 142.588 91.0668 142.537 91.0668 142.363C91.0668 141.832 90.8826 141.536 90.5551 141.536V141.526ZM91.1282 141.046H89.9717C89.9206 141.046 89.8796 141.015 89.8796 140.954V140.882C89.8796 140.821 89.9103 140.79 89.9615 140.79H91.118C91.1692 140.79 91.2101 140.811 91.2101 140.872V140.944C91.2101 141.005 91.1794 141.036 91.118 141.036L91.1282 141.046Z" fill="white" stroke="white" stroke-width="0.171899"/>
<path d="M92.9886 144.029C93.3264 144.029 93.5004 143.855 93.5004 143.579C93.5004 142.813 92.088 143.16 92.088 142.149C92.088 141.138 92.4258 141.342 92.9989 141.342C93.572 141.342 93.6846 141.505 93.7767 141.608C93.8176 141.648 93.8279 141.679 93.8074 141.74L93.705 142.067C93.6948 142.098 93.6846 142.108 93.6539 142.108H93.6232C93.5925 142.108 93.572 142.088 93.572 142.057C93.5004 141.751 93.2854 141.546 92.9477 141.546C92.61 141.546 92.4872 141.74 92.4872 141.975C92.4872 142.701 93.8893 142.343 93.8893 143.426C93.8893 144.509 93.5618 144.253 92.9579 144.253C92.3541 144.253 92.2415 144.12 92.129 144.029C92.0778 143.988 92.0676 143.947 92.0778 143.896L92.1801 143.508C92.1904 143.457 92.2006 143.457 92.2415 143.457H92.2722C92.3029 143.457 92.3234 143.457 92.3439 143.528C92.4258 143.886 92.6816 144.029 92.9989 144.029H92.9886ZM92.9784 141.036C92.9477 141.036 92.917 141.015 92.8658 140.964L92.2518 140.372C92.2108 140.341 92.2722 140.229 92.3234 140.249L92.9784 140.596L93.6232 140.249C93.6846 140.218 93.746 140.321 93.6948 140.372L93.091 140.964C93.0398 141.015 92.9989 141.036 92.9784 141.036Z" fill="white" stroke="white" stroke-width="0.171899"/>
<path d="M96.4789 144.233H96.4072C96.1923 144.233 96.049 144.11 95.9979 143.794C95.8751 144.069 95.6294 144.253 95.1996 144.253C94.7697 144.253 94.3706 144.039 94.3706 143.508C94.3706 142.976 94.8414 142.639 95.7522 142.639H95.9774V142.466C95.9774 141.802 95.7522 141.577 95.3736 141.577C94.9949 141.577 94.8619 141.751 94.7595 141.996C94.7288 142.057 94.7186 142.067 94.6879 142.067H94.6469C94.6265 142.067 94.6162 142.047 94.5958 141.996L94.5548 141.7C94.5344 141.638 94.5446 141.597 94.606 141.557C94.6879 141.495 95.0051 141.352 95.394 141.352C96.0593 141.352 96.4789 141.72 96.4789 142.568V143.508C96.4789 143.947 96.5505 144.131 96.5505 144.172C96.5505 144.212 96.5301 144.233 96.4789 144.233ZM94.8823 143.477C94.8823 143.845 95.0563 144.018 95.3326 144.018C95.7522 144.018 95.9774 143.64 95.9876 143.252V142.833H95.7727C95.1075 142.833 94.8823 143.058 94.8823 143.487V143.477Z" fill="white" stroke="white" stroke-width="0.171899"/>
<path d="M99.3553 144.223H98.9255C98.8436 144.223 98.8334 144.192 98.8538 144.1C98.8845 143.957 98.8948 143.845 98.8948 143.303V142.456C98.8948 141.904 98.772 141.618 98.4752 141.618C97.9839 141.618 97.7895 142.251 97.7895 143.007V143.232C97.7895 143.845 97.8099 143.947 97.8304 144.1C97.8509 144.192 97.8406 144.223 97.7588 144.223H97.3289C97.2368 144.223 97.2266 144.192 97.2573 144.1C97.288 143.947 97.2982 143.845 97.2982 143.232V142.261C97.2982 141.965 97.2573 141.618 97.2266 141.506C97.2061 141.444 97.2266 141.403 97.2982 141.403H97.4108C97.7076 141.403 97.7895 141.506 97.7997 142.006C97.9327 141.638 98.1988 141.352 98.6492 141.352C99.0995 141.352 99.4065 141.669 99.4065 142.415V143.314C99.4065 143.855 99.4167 143.967 99.4474 144.11C99.4679 144.202 99.4577 144.233 99.3758 144.233L99.3553 144.223Z" fill="white" stroke="white" stroke-width="0.171899"/>
<path d="M102.12 144.233H102.048C101.833 144.233 101.69 144.11 101.639 143.794C101.516 144.069 101.271 144.253 100.841 144.253C100.411 144.253 100.012 144.039 100.012 143.508C100.012 142.976 100.483 142.639 101.393 142.639H101.619V142.466C101.619 141.802 101.393 141.577 101.015 141.577C100.636 141.577 100.503 141.751 100.401 141.996C100.37 142.057 100.36 142.067 100.329 142.067H100.288C100.268 142.067 100.257 142.047 100.237 141.996L100.196 141.7C100.175 141.638 100.186 141.597 100.247 141.557C100.329 141.495 100.646 141.352 101.025 141.352C101.69 141.352 102.11 141.72 102.11 142.568V143.508C102.11 143.947 102.181 144.131 102.181 144.172C102.181 144.212 102.161 144.233 102.11 144.233H102.12ZM100.513 143.477C100.513 143.845 100.687 144.018 100.964 144.018C101.383 144.018 101.608 143.64 101.619 143.252V142.833H101.404C100.738 142.833 100.513 143.058 100.513 143.487V143.477Z" fill="white" stroke="white" stroke-width="0.171899"/>
<path d="M74.3735 101.494C74.6703 101.606 74.9568 101.708 75.2127 101.81C75.2127 101.81 77.5973 102.485 78.59 103.108C79.2655 103.761 79.9921 103.843 80.7904 103.353C81.1691 103.138 81.5887 103.118 82.0185 103.138C82.039 103.138 82.0697 103.138 82.0902 103.128C82.346 103.077 82.5814 103.026 82.6428 102.679C82.7861 101.902 82.4893 101.187 81.8036 100.738C81.036 100.503 80.2378 100.472 79.4497 100.442C79.1631 100.431 78.8868 100.421 78.6003 100.401C78.3649 100.38 78.0885 100.248 77.8429 100.135C77.8122 100.115 77.7713 100.105 77.7406 100.084C77.1674 99.8083 76.8502 99.6448 76.4306 99.4201C76.2771 99.3384 76.1031 99.2465 75.9086 99.1443C75.9086 99.1443 74.3325 98.2556 74.4963 97.704C74.66 97.3567 74.967 97.4793 75.1103 97.6223C75.4276 97.9594 76.0826 98.3475 76.5227 98.6029C76.5431 98.6131 76.5636 98.6233 76.5841 98.6438C76.9627 98.8685 77.3414 99.2873 77.6894 99.6653C77.8122 99.7981 77.9248 99.9206 78.0374 100.033C78.8049 100.82 80.0535 99.9411 80.5857 99.2771C80.8928 98.8072 80.3708 98.0717 80.3708 98.0717C80.3708 98.0717 79.593 97.2035 78.9073 97.0605C78.5388 96.989 78.1602 96.8459 78.0476 96.3965C78.0476 96.2535 77.9555 96.2024 77.8327 96.1718C76.8911 96.0288 76.6762 95.3341 76.5227 94.5272C76.451 94.1492 76.6557 93.7304 76.8502 93.332C77.0958 92.8315 77.3312 92.3514 77.0446 91.9428C76.799 91.6057 76.9935 91.381 77.28 91.238C77.3107 91.2175 77.3517 91.2073 77.3824 91.1869C77.6485 91.0439 77.9453 90.8907 78.2011 91.1052C78.3342 91.2175 78.2728 91.4014 78.2011 91.6057C78.1295 91.8202 78.0476 92.0552 78.1704 92.2595C78.3444 92.5353 78.5491 92.7804 78.9175 92.5046C79.0096 92.3718 79.1836 92.3616 79.2552 92.4229C79.6851 92.8111 80.0331 92.5863 80.3708 92.3003C80.381 92.3003 80.3913 92.2799 80.4015 92.2799C80.5755 92.1471 80.7495 92.0143 80.7085 91.7385C80.7085 91.7385 80.7085 91.7283 80.7085 91.7181C80.6881 91.6057 80.6676 91.4525 80.8109 91.4014C80.9542 91.3503 81.0156 91.432 81.077 91.524C81.0974 91.5546 81.1179 91.5853 81.1486 91.6159C81.5068 91.9632 81.6808 91.953 82.0902 91.5648C82.0902 91.2277 82.2232 90.9622 82.52 90.7987C82.8885 90.5842 82.9089 90.3186 82.694 89.9917C82.5917 89.9407 82.6019 89.8487 82.6224 89.767C82.6224 89.4401 82.4177 89.4299 82.2232 89.4197C82.1516 89.4197 82.0799 89.4197 82.0083 89.3891C81.9878 89.3891 81.9776 89.3789 81.9571 89.3686C81.8446 89.338 81.7524 89.3073 81.732 89.1746C81.7115 89.0213 81.8139 88.9396 81.9469 88.909C82.3665 88.7966 82.3665 88.5004 82.2642 88.1735C82.1209 87.7445 82.1721 87.3461 82.2846 86.8966C82.4484 86.2429 82.4995 85.5585 82.1209 84.9252C81.7422 84.3123 81.0872 83.4542 80.3708 83.2193C79.0915 82.8005 77.9555 82.9332 76.7581 83.4542C75.2843 84.0977 74.6191 85.7321 75.2434 86.774C75.4071 86.9171 75.4276 87.1316 75.2843 87.2337C75.0796 87.3767 74.8135 87.3767 74.5986 87.2031C74.312 86.866 73.9846 86.58 73.5342 86.5595C72.4596 86.5085 71.3953 86.5391 70.5151 87.3052C69.8601 87.5197 67.9667 87.9896 66.4418 88.3676C65.664 88.5617 64.9783 88.7353 64.5894 88.8375C64.4768 88.8681 64.2107 88.9192 63.8525 88.9907C62.0206 89.3482 57.6914 90.1858 58.0292 91.2073C58.0599 91.3095 58.1417 91.4014 58.2134 91.4933C58.3464 91.6568 58.4795 91.81 58.3362 91.9734C58.1929 92.1369 58.0292 92.1369 57.8654 91.9939C57.5174 91.6261 57.0876 91.5546 56.5759 91.7487C56.5452 91.7589 56.5145 91.7691 56.494 91.7896C56.32 91.8611 56.1256 91.953 55.9823 91.7896C55.8697 91.667 55.9209 91.5444 55.9823 91.4116C55.9823 91.4116 55.9823 91.4014 55.9823 91.3912C56.0744 91.1767 56.1972 90.9724 56.3303 90.7783C56.4428 90.6046 56.5452 90.431 56.6373 90.2471C56.8113 89.8896 56.7703 89.5934 56.5247 89.338C56.1256 88.9294 55.6343 88.6842 55.0407 88.7762C54.7439 88.8272 54.4574 88.909 54.4778 89.3073C54.4778 89.4197 54.4574 89.5423 54.3141 89.5525C54.2322 89.5525 54.2015 89.5014 54.1606 89.4401C54.1503 89.4197 54.1401 89.3993 54.1196 89.3789C53.7614 88.9294 53.6284 88.909 53.1781 89.2563C52.6766 89.6342 52.257 90.5127 52.0113 91.0745C51.9704 91.1665 51.9192 91.2584 51.8783 91.3401C51.7145 91.6363 51.5406 91.9428 51.8067 92.3105C51.8067 92.3412 51.8067 92.3616 51.8169 92.3923C51.8169 92.4229 51.8271 92.4535 51.8271 92.4944C52.1751 92.7906 52.4617 92.7089 52.6356 92.5863C52.5947 92.6476 52.5742 92.7089 52.5845 92.8008C52.6561 93.3831 52.3286 93.5465 51.8271 93.5363C51.4075 93.5363 50.9981 93.6793 50.5785 93.8223C50.2817 93.9347 49.9747 94.0369 49.6574 94.0879C48.8489 94.2207 49.0229 95.3852 49.2481 95.8551C49.3197 96.0185 49.5142 96.611 49.1355 96.5293C48.8285 96.3863 48.6238 96.0185 48.4395 95.661C48.3372 95.4772 48.2451 95.2933 48.1325 95.1605C47.8562 94.8234 47.5799 94.6191 47.2831 94.4046C47.0988 94.2718 46.9146 94.139 46.7099 93.9551C46.5871 93.8428 46.4643 93.7406 46.3415 93.6385C45.8195 93.2094 45.359 92.8315 45.2362 92.0858C45.2055 91.9224 45.2055 91.7589 45.1952 91.6057C45.1748 91.1256 45.1543 90.6761 44.5914 90.4106C40.9548 89.8045 37.9937 89.2937 35.708 88.8783C35.4726 88.8375 35.2577 88.7966 35.0428 88.7557C33.7839 88.5208 32.8935 88.3471 31.4402 88.4289C29.9767 88.5004 28.9124 88.9192 28.0322 89.9815C27.5103 90.717 27.541 91.4627 28.0015 92.2084C29.4957 94.5987 33.8965 94.1901 36.2606 93.8734C36.2913 93.8734 36.3323 93.8632 36.3732 93.853C36.5881 93.8121 36.8645 93.7611 36.9463 94.0266C37.0385 94.3127 35.4726 94.9971 34.705 95.3341C34.531 95.4159 34.3878 95.4669 34.3263 95.4976C34.0398 95.6202 33.743 95.7427 33.4564 95.8551C32.5046 96.2433 31.5528 96.6314 30.6727 97.1728C30.3247 97.4282 30.0074 97.9083 30.6931 97.9594C31.4505 98.0105 32.9038 97.6325 32.9038 97.6325C33.2313 97.5508 33.569 97.4691 33.9067 97.3873C35.6363 96.9787 37.4274 96.5497 38.983 95.7121C39.157 95.6304 39.331 95.5384 39.4845 95.4567C40.2111 95.0788 40.8354 94.7621 41.7974 94.6497H41.8179C42.5036 94.568 43.6192 94.425 44.0388 95.089C44.5812 95.9266 44.9292 96.7949 45.2771 97.6529C45.5637 98.3578 45.8503 99.0626 46.2392 99.7368C46.536 100.38 47.017 100.809 47.672 101.126C48.3474 101.443 48.9513 101.861 49.3709 102.556C49.422 102.638 49.4835 102.72 49.5551 102.791C49.4016 102.393 49.2685 101.913 49.156 101.351C48.8592 99.9615 49.0331 99.1341 49.4016 98.6438C49.7291 98.2045 50.1794 98.0922 50.3329 98.0411C50.6809 97.9492 51.0186 97.8572 51.3666 97.7551C51.5406 97.704 51.7043 97.6631 51.8783 97.6121L67.1275 93.567C67.148 93.567 67.1992 93.5465 67.2913 93.5261C67.3936 93.5057 67.5369 93.475 67.7109 93.4546C68.0588 93.4035 68.5296 93.3729 69.0413 93.4444C69.5531 93.5159 70.1057 93.6793 70.5867 94.0369C71.078 94.4046 71.4771 94.946 71.7023 95.7427C71.9684 96.6723 71.9786 97.418 71.8149 98.0309C71.6818 98.5621 71.426 98.9604 71.1292 99.2669C71.1292 99.604 71.2827 99.9002 71.559 100.186C72.2038 100.789 73.3603 101.208 74.353 101.565L74.3735 101.494Z" fill="white"/>
<path fill-rule="evenodd" clip-rule="evenodd" d="M49.8706 98.9399C49.6557 99.2259 49.451 99.849 49.7273 101.157C50.0958 102.903 50.5768 103.567 51.0066 103.802C51.416 104.027 51.8561 103.945 52.419 103.833C52.4599 103.833 52.5008 103.812 52.5418 103.812L59.2453 102.045C58.9587 101.422 58.5903 100.339 58.3344 99.3791C58.1093 98.5313 58.0172 97.7243 57.9865 97.1216C57.9762 96.9071 57.966 96.7233 57.966 96.57L51.9994 98.1533L50.5154 98.5722C50.4949 98.5722 50.4744 98.5824 50.4437 98.5926C50.28 98.6437 50.0446 98.705 49.8501 98.9603L49.8706 98.9399ZM61.0568 101.565L60.0538 101.831C59.8082 101.34 59.409 100.217 59.1327 99.1646C58.928 98.3883 58.8462 97.6324 58.8154 97.0706C58.8052 96.7846 58.795 96.5598 58.795 96.3964C58.795 96.376 58.795 96.3555 58.795 96.3453L65.5087 94.5679C65.5087 94.7109 65.5087 94.8744 65.519 95.0582C65.5394 95.6303 65.6213 96.4168 65.826 97.2544C66.0819 98.2759 66.5219 99.4404 66.8597 100.104L61.0568 101.575V101.565ZM67.6784 99.8797L69.3261 99.4609H69.3364C69.3364 99.4609 69.3364 99.4609 69.3569 99.4609C69.3773 99.4609 69.3978 99.4609 69.4387 99.4404C69.5104 99.42 69.6127 99.3996 69.7253 99.3485C69.9607 99.2566 70.2677 99.1033 70.544 98.8582C70.8204 98.613 71.0558 98.2759 71.1786 97.7958C71.3014 97.3157 71.3116 96.6824 71.066 95.8346C70.8715 95.1706 70.544 94.7416 70.1756 94.4555C69.7969 94.1797 69.3569 94.0367 68.9168 93.9755C68.4767 93.9142 68.0571 93.9448 67.7501 93.9857C67.5965 94.0061 67.4737 94.0265 67.3816 94.047C67.3407 94.047 67.31 94.0674 67.2793 94.0674C67.269 94.0674 67.2588 94.0674 67.2588 94.0674L66.3377 94.3125C66.3377 94.3228 66.3377 94.3432 66.3377 94.3534C66.3377 94.5066 66.3377 94.7211 66.3377 94.9867C66.3582 95.5179 66.4298 96.2432 66.6243 97.0195C66.9006 98.1125 67.3919 99.3383 67.6784 99.8592V99.8797Z" fill="white"/>
<path d="M14.5625 109.768C16.6912 111.116 18.7586 111.627 21.1125 112.434C22.7295 112.986 23.3129 113.629 25.0527 113.629C26.7926 113.629 28.4096 112.699 29.8322 112.434C31.4287 112.127 33.5882 111.811 35.3895 112.24C39.606 113.241 42.748 114.671 45.9923 116.448C49.124 118.164 50.9662 120.82 53.5964 121.546C55.7763 122.148 57.7311 123.282 59.8291 124.099C61.3234 124.682 62.8994 124.957 64.4858 125.039C66.6145 125.151 68.6 124.375 70.3808 123.221C72.3867 121.924 73.6455 120.994 75.0886 120.442C76.4907 119.901 78.3227 120.177 79.1414 120.167C81.6079 120.146 82.5392 118.124 84.9136 118.021C85.9882 117.981 87.9225 118.399 89.8568 118.297C90.8393 118.246 91.3715 118.093 92.354 118.021C95.4141 117.817 98.382 118.083 101.36 118.747C103.428 119.206 105.945 119.973 108.084 119.615C110.377 119.237 112.372 118.307 114.829 118.297C116.006 118.297 117.224 117.95 118.37 118.747C119.639 119.615 120.13 119.595 121.358 120.146C123.088 120.923 124.858 121.484 126.741 121.443C128.799 121.392 129.3 121.106 132.299 121.28C134.069 121.26 137.641 121.014 139.401 121.117C140.681 121.188 141.274 121.546 142.513 121.842" stroke="white" stroke-width="1.20329" stroke-linecap="round"/>
<path d="M144.998 81.1967C143.893 81.595 102.884 94.6599 82.5273 101.146M82.8651 102.648L144.998 110.513" stroke="white" stroke-width="0.567265" stroke-linecap="round"/>
<path d="M14.4609 90.4616C14.8908 90.2471 15.9859 89.481 17.2856 88.6229C20.0898 86.7843 22.1367 86.6923 24.8386 84.4655C25.9848 83.5155 26.8548 82.8515 27.6019 81.8811C28.2876 81.0128 28.9426 80.0526 29.7204 79.0311C31.9208 76.1403 32.5758 73.7602 34.1621 71.2167C35.073 69.756 35.8405 68.1216 36.9766 66.8243C38.4913 65.1082 39.0951 64.526 41.8277 63.6168C43.9257 63.2797 46.208 63.9131 48.2651 63.2797C51.7038 61.676 55.7055 58.8669 58.0389 56.1293C58.9498 55.067 60.8124 52.738 60.8124 52.738C60.8124 52.738 64.6913 46.8644 66.0013 43.8101C66.6972 42.1757 67.475 39.4688 69.2046 40.8887C70.1769 41.6854 70.4327 43.6263 70.6374 44.7805C71.0468 47.0585 71.8348 49.5203 73.9227 50.8584C75.2327 51.696 76.1845 52.3089 77.648 52.9116C79.0091 53.4734 80.3908 53.9025 81.7622 54.4643C84.2184 55.4653 84.2082 57.8046 86.2039 59.4492C88.2815 61.1653 91.3927 61.676 93.8183 62.6669C95.507 63.3615 97.2366 64.2399 98.8127 65.1593C102.753 67.3249 103.091 68.9797 106.417 69.3576C109.313 69.8479 112.373 69.5926 115.3 69.5926C118.227 69.5926 117.398 69.1431 119.189 68.8673C119.916 68.7549 119.527 69.4496 120.018 69.6947C120.847 70.1033 122.475 71.0227 124.296 70.8592C125.811 70.7162 128.308 70.5017 130.959 70.0318C133.517 69.5721 135.349 68.9797 137.621 68.4791C138.788 68.142 140.221 68.5609 141.009 67.7539C141.613 67.141 142.994 66.2523 144.55 66.4259" stroke="white" stroke-width="1.20329" stroke-linecap="round"/>
</g>
</svg>
