<svg width="60" height="60" viewBox="0 0 60 60" fill="none" xmlns="http://www.w3.org/2000/svg">
<path d="M48.75 3.75C49.7442 3.75109 50.6973 4.14659 51.4004 4.84961C52.1034 5.55263 52.4989 6.50577 52.5 7.5V31.875C52.504 35.6144 51.4893 39.2847 49.5654 42.4912C47.6416 45.6974 44.8811 48.3191 41.58 50.0752L30 56.25L18.4199 50.0762C15.1187 48.3201 12.3584 45.6976 10.4345 42.4912C8.51062 39.2846 7.4959 35.6145 7.49997 31.875V7.5C7.50106 6.50578 7.89656 5.55263 8.59958 4.84961C9.3026 4.14659 10.2557 3.7511 11.25 3.75H48.75ZM11.25 31.875C11.2467 34.9346 12.0772 37.937 13.6513 40.5605C15.2256 43.1841 17.4843 45.3297 20.1855 46.7666L30 52L39.8144 46.7666C42.5157 45.3297 44.7744 43.1841 46.3486 40.5605C47.9228 37.937 48.7532 34.9346 48.75 31.875V7.5H11.25V31.875ZM45 31.5088C44.9999 33.8853 44.3545 36.2174 43.1328 38.2559C41.911 40.2944 40.1584 41.9636 38.0625 43.084L30 47.3945V11.25H45V31.5088Z" fill="black"/>
</svg>
