<svg width="60" height="60" viewBox="0 0 60 60" fill="none" xmlns="http://www.w3.org/2000/svg">
<path d="M56.25 52.5H3.75V48.75H56.25V52.5ZM56.25 45H3.75V41.25H56.25V45ZM52.5 7.5C53.4938 7.50252 54.4457 7.89885 55.1484 8.60156C55.8512 9.30428 56.2475 10.2562 56.25 11.25V33.75C56.2487 34.7442 55.8534 35.6974 55.1504 36.4004C54.4474 37.1034 53.4942 37.4987 52.5 37.5H7.5C6.50621 37.4975 5.55428 37.1012 4.85156 36.3984C4.14885 35.6957 3.75252 34.7438 3.75 33.75V11.25C3.75252 10.2562 4.14885 9.30428 4.85156 8.60156C5.55428 7.89885 6.50621 7.50252 7.5 7.5H52.5ZM7.5 33.75H52.5V11.25H7.5V33.75ZM28.5371 15.1445C29.9919 14.8552 31.4997 15.0037 32.8701 15.5713C34.2405 16.139 35.4122 17.0997 36.2363 18.333C37.0604 19.5664 37.5 21.0166 37.5 22.5C37.4978 24.4884 36.7068 26.3947 35.3008 27.8008C33.8947 29.2068 31.9884 29.9978 30 30C28.5166 30 27.0664 29.5604 25.833 28.7363C24.5997 27.9122 23.639 26.7405 23.0713 25.3701C22.5037 23.9997 22.3552 22.4919 22.6445 21.0371C22.9339 19.5823 23.6474 18.2452 24.6963 17.1963C25.7452 16.1474 27.0823 15.4339 28.5371 15.1445ZM15 18.75C15.9946 18.75 16.9481 19.1454 17.6514 19.8486C18.3546 20.5519 18.75 21.5054 18.75 22.5C18.75 23.2415 18.5301 23.9664 18.1182 24.583C17.7062 25.1996 17.1206 25.681 16.4355 25.9648C15.7504 26.2487 14.996 26.3224 14.2686 26.1777C13.5411 26.033 12.8731 25.6758 12.3486 25.1514C11.8242 24.6269 11.467 23.9589 11.3223 23.2314C11.1776 22.504 11.2513 21.7496 11.5352 21.0645C11.819 20.3794 12.3004 19.7938 12.917 19.3818C13.5336 18.9699 14.2585 18.75 15 18.75ZM30 18.75C29.2585 18.75 28.5336 18.9699 27.917 19.3818C27.3003 19.7939 26.819 20.3802 26.5352 21.0654C26.2515 21.7505 26.1776 22.5042 26.3223 23.2314C26.467 23.9589 26.8242 24.6269 27.3486 25.1514C27.8731 25.6758 28.5411 26.033 29.2686 26.1777C29.996 26.3224 30.7504 26.2487 31.4355 25.9648C32.1206 25.681 32.7062 25.1996 33.1182 24.583C33.5301 23.9664 33.75 23.2415 33.75 22.5C33.749 21.5057 33.3534 20.5527 32.6504 19.8496C31.9473 19.1466 30.9943 18.751 30 18.75ZM45 18.75C45.9946 18.75 46.9481 19.1454 47.6514 19.8486C48.3546 20.5519 48.75 21.5054 48.75 22.5C48.75 23.2415 48.5301 23.9664 48.1182 24.583C47.7062 25.1996 47.1206 25.681 46.4355 25.9648C45.7504 26.2487 44.996 26.3224 44.2686 26.1777C43.5411 26.033 42.8731 25.6758 42.3486 25.1514C41.8242 24.6269 41.467 23.9589 41.3223 23.2314C41.1776 22.504 41.2513 21.7496 41.5352 21.0645C41.819 20.3794 42.3004 19.7938 42.917 19.3818C43.5336 18.9699 44.2585 18.75 45 18.75Z" fill="black"/>
</svg>
