<svg width="60" height="60" viewBox="0 0 60 60" fill="none" xmlns="http://www.w3.org/2000/svg">
<path d="M24.8789 4.25488C29.9709 3.24202 35.2493 3.76125 40.0459 5.74805C44.8422 7.73484 48.9418 11.0994 51.8261 15.416C54.7105 19.7328 56.25 24.8083 56.25 30C56.2421 36.9595 53.4738 43.6316 48.5527 48.5527C43.6316 53.4739 36.9595 56.2422 30 56.25C24.8082 56.25 19.7328 54.7106 15.416 51.8262C11.0994 48.9419 7.73481 44.8423 5.74802 40.0459C3.76122 35.2493 3.242 29.9709 4.25486 24.8789C5.26773 19.7869 7.76735 15.1096 11.4385 11.4385C15.1096 7.76737 19.7869 5.26776 24.8789 4.25488ZM30 7.5C25.55 7.5 21.2 8.81975 17.5 11.292C13.7999 13.7643 10.9158 17.2783 9.21287 21.3896C7.5099 25.501 7.06443 30.0251 7.93259 34.3896C8.80078 38.7542 10.9432 42.7635 14.0898 45.9102C17.2365 49.0568 21.2458 51.1992 25.6103 52.0674C29.9749 52.9356 34.499 52.4901 38.6103 50.7871C42.7217 49.0841 46.2357 46.2001 48.708 42.5C51.1802 38.7999 52.5 34.45 52.5 30C52.4932 24.0347 50.1204 18.3157 45.9023 14.0977C41.6842 9.87958 35.9652 7.5068 30 7.5ZM31.875 46.875H28.125V33.75H31.875V46.875ZM26.25 31.875H13.125V28.125H26.25V31.875ZM46.875 28.125V31.875H33.75V28.125H46.875ZM31.875 26.25H28.125V13.125H31.875V26.25Z" fill="black"/>
</svg>
