<svg width="60" height="60" viewBox="0 0 60 60" fill="none" xmlns="http://www.w3.org/2000/svg">
<path d="M56.2052 29.5935L52.4552 12.7185C52.3505 12.2464 52.0674 11.8331 51.6651 11.565L40.4151 4.065C40.1071 3.85971 39.7452 3.75012 39.375 3.75H20.625C20.2549 3.75012 19.893 3.85971 19.585 4.065L8.33496 11.565C7.9326 11.8331 7.64949 12.2464 7.54483 12.7185L3.79483 29.5935C3.72542 29.9062 3.7371 30.2314 3.82877 30.5383L9.45377 49.2883C9.54289 49.5858 9.70449 49.8564 9.92405 50.076C10.1436 50.2955 10.4143 50.4571 10.7117 50.5463L29.4617 56.1713L29.4713 56.1722C29.8161 56.2759 30.1839 56.2759 30.5288 56.1722L30.5383 56.1713L49.2883 50.5463C49.5858 50.4571 49.8564 50.2955 50.076 50.076C50.2956 49.8564 50.4571 49.5858 50.5463 49.2883L56.1713 30.5383C56.2629 30.2314 56.2746 29.9062 56.2052 29.5935ZM20.4865 31.1554L13.1565 16.4951L26.8093 21.4599L20.4865 31.1554ZM30 23.4321L36.7292 33.75H23.2708L30 23.4321ZM36.3409 37.5L30 50.1819L23.6591 37.5H36.3409ZM33.1909 21.4599L46.8437 16.4951L39.5125 31.1554L33.1909 21.4599ZM34.1063 17.1375L39.9115 8.23688L46.5025 12.6304L34.1063 17.1375ZM30 16.5683L24.0861 7.5H35.914L30 16.5683ZM25.8938 17.1367L13.4985 12.6296L20.0895 8.23613L25.8938 17.1367ZM16.8115 32.193L7.80771 28.8167L10.0598 18.6877L16.8115 32.193ZM26.3813 51.3319L14.1898 47.6743L20.0556 38.6801L26.3813 51.3319ZM39.9439 38.6801L45.8096 47.6743L33.6188 51.3319L39.9439 38.6801ZM49.9403 18.6877L52.1914 28.8163L43.1876 32.1926L49.9403 18.6877ZM8.50765 33.0834L17.1221 36.3135L11.8858 44.3437L8.50765 33.0834ZM48.1142 44.3437L42.8779 36.3137L51.4924 33.0836L48.1142 44.3437Z" fill="black"/>
</svg>
